<svg width="165" height="165" viewBox="0 0 165 165" fill="none" xmlns="http://www.w3.org/2000/svg">
<g clip-path="url(#clip0)">
<path d="M108.313 24.2693C84.9703 24.7938 61.6275 26.2364 38.4159 28.4657C37.3668 28.5969 36.3177 28.728 35.662 29.2525C35.9243 28.4657 35.0063 29.7771 35.662 29.2525C34.7441 32.9244 35.7932 38.6945 36.4489 42.4976C38.8094 55.3492 39.3339 62.4307 38.4159 75.5446C37.8914 83.2818 38.4159 96.658 38.4159 104.395C38.4159 108.067 37.2357 111.87 37.498 115.542C37.8914 120.001 36.7111 124.984 37.1046 129.443C37.1046 129.967 37.2357 130.492 37.6291 130.754C37.8914 131.016 38.2848 131.148 38.6782 131.148C45.2352 132.065 51.9233 132.983 58.4802 133.508C71.7252 134.688 84.9703 135.213 98.2153 134.164C108.838 133.377 119.329 131.41 129.558 128.656C129.295 131.672 129.164 134.819 128.902 137.836C128.902 138.754 128.771 139.672 128.246 140.458C127.328 141.77 125.623 142.163 123.919 142.294C101.494 145.179 78.8068 141.376 56.2508 142.688C49.4316 143.081 42.6124 143.999 35.9243 143.081C34.6129 142.95 33.3015 142.688 32.2524 141.77C30.6787 140.458 30.4165 138.229 30.2853 136.131C29.6296 122.099 31.7279 108.067 32.1213 94.0352C32.5147 75.1512 29.7608 56.3983 29.1051 37.5143C28.9739 33.1867 29.3674 27.9412 33.3015 25.8429C34.7441 25.0561 36.58 24.7938 38.2848 24.6627C43.1369 24.2693 47.9891 24.007 52.9724 23.7447C72.2498 22.6956 91.5272 21.7776 110.936 20.7285C110.805 22.171 109.756 23.4824 108.444 24.1381" fill="#F4ECFD"/>
<path d="M67.2692 24.9258C61.3679 25.1881 57.5649 25.3192 53.893 25.5815C52.0571 25.7126 50.09 25.8438 47.8606 26.106C45.6313 26.3683 43.1396 26.6306 39.9923 27.6797C39.5989 27.8108 39.2055 27.942 38.812 28.0731C38.5498 28.2043 37.7629 28.7288 37.1072 28.9911C36.7138 29.1222 36.845 29.5157 36.845 29.9091V30.9582V32.1384C36.845 33.7121 36.9761 35.1546 37.1072 36.7283C37.3695 39.7445 37.6318 42.7607 38.0252 45.5146C38.5498 48.1374 39.0743 52.9895 39.5989 56.0057V57.186C39.73 58.2351 39.9923 59.5465 39.9923 60.5956V60.4644C40.2546 62.0381 40.2546 63.8741 40.2546 64.6609V64.5298V66.4968V66.1034C40.3857 68.8573 40.3857 71.8735 39.8612 74.3652L39.9923 74.234C39.0743 79.873 39.3366 81.8401 38.9432 86.9545V86.8234C39.2055 93.2492 38.6809 96.9211 39.2055 103.478C39.0743 102.691 39.0743 103.871 39.0743 103.74C39.2055 106.757 39.2055 109.904 39.4677 110.035C39.4677 112.264 39.3366 111.871 39.2055 112.133C39.3366 112.133 39.3366 113.969 39.3366 115.674V114.887C39.3366 116.461 39.2055 118.166 39.0743 119.739L39.3366 118.821C39.3366 119.477 39.2055 119.87 39.2055 120.002C39.2055 120.264 39.0743 120.264 39.0743 120.395C38.9432 120.526 38.9432 120.657 38.812 121.706H39.0743C38.6809 123.28 37.8941 124.723 37.7629 126.296C37.7629 126.427 37.7629 126.69 37.7629 126.952C37.7629 127.214 37.7629 127.476 37.8941 127.608C38.0252 128.001 38.1563 128.394 38.4186 128.788C38.5498 129.05 38.5498 129.181 38.812 129.444C39.0743 129.706 39.2055 129.968 39.4677 130.099C39.5989 130.099 39.73 130.23 39.9923 130.23L40.3857 130.362C40.648 130.362 40.7791 130.493 41.0414 130.493C55.3355 132.984 71.0722 134.033 84.7107 134.165L85.3664 134.296C85.6286 134.558 89.1694 133.902 89.694 134.033L91.2676 133.902C91.661 133.902 92.7102 133.902 91.9233 134.033C93.3658 134.033 93.3658 133.902 94.415 133.771H95.9886C101.759 133.378 106.611 132.591 112.512 131.542C114.348 131.279 116.446 130.886 118.938 130.493C120.118 130.23 121.43 129.968 122.61 129.706C123.266 129.575 123.921 129.444 124.577 129.312L125.101 129.181C125.233 129.181 125.101 129.181 125.364 129.181H126.413C126.544 129.181 126.806 129.181 127.069 129.05C127.331 129.05 127.593 128.919 127.855 128.788C128.118 128.657 128.249 128.526 128.642 128.394C129.167 128.132 129.822 128.001 130.478 127.87L131.396 127.608C131.921 127.476 132.445 127.345 132.839 127.214L133.626 127.083L134.019 126.952C134.15 126.952 134.281 126.952 134.281 126.821C134.15 126.296 133.888 125.772 133.757 125.247C133.232 123.936 132.839 122.624 132.445 121.444C132.052 120.395 131.79 119.346 131.527 118.428C129.822 113.182 128.773 107.281 127.987 101.38C127.2 95.4785 126.675 89.4462 126.019 83.8072C126.019 83.4138 125.888 82.4958 125.888 82.4958C125.626 79.0862 125.495 75.6766 125.364 72.1358C125.364 72.1358 125.233 68.9885 125.101 64.9232C124.97 60.8579 124.708 55.7434 124.446 51.8093C123.921 44.0721 123.397 41.0559 123.003 60.071V59.8088C123.003 65.4477 123.134 68.9885 123.659 72.9227C123.397 73.5783 123.921 77.6437 123.921 78.955V78.8239C124.446 82.2335 124.184 85.9054 124.708 89.315C124.708 89.1839 124.577 89.1839 124.446 88.397C124.708 90.7575 125.101 94.1672 124.97 94.2983C125.626 100.068 126.937 108.068 128.118 111.74L127.987 111.477C128.642 113.576 128.642 114.1 129.298 116.461C129.298 116.592 129.298 116.723 129.298 116.723C129.691 117.772 130.216 119.477 130.609 121.051C130.872 121.837 131.134 122.624 131.265 123.28C131.396 123.673 131.527 123.936 131.527 124.198C131.527 124.329 131.658 124.46 131.658 124.591C131.658 124.591 131.658 124.723 131.79 124.723H131.658L131.79 125.247L131.265 125.378L130.478 125.641L129.298 125.903C129.822 125.772 130.478 125.641 131.003 125.509C130.74 125.772 129.822 125.903 128.642 126.165C128.38 126.296 127.987 126.296 127.593 126.427C127.2 126.558 126.806 126.821 126.675 126.821C126.544 126.821 126.019 126.821 125.626 126.952C125.495 126.952 125.233 126.952 124.97 126.952C124.839 126.952 124.708 126.952 124.577 127.083L124.315 127.214C122.741 127.476 121.298 128.001 119.725 128.526C118.151 129.05 116.709 129.444 115.004 129.706C113.561 130.099 116.315 129.181 114.086 129.706C113.955 129.575 115.135 129.444 114.479 129.312C112.25 129.837 110.807 129.837 108.053 130.362L107.922 130.23C106.086 130.624 104.382 130.755 102.939 131.017C101.365 131.148 99.9228 131.279 98.7425 131.542C95.0706 131.935 96.2509 131.411 92.3167 131.935L90.7431 131.804C89.0383 131.804 89.5628 132.066 87.7269 132.066C87.858 131.935 85.3664 132.066 86.4155 131.935C82.219 131.935 77.8914 132.329 72.3836 131.804C71.2034 131.935 68.4494 131.673 67.5315 131.804C67.4003 131.673 62.0236 131.279 65.171 131.411C65.4332 131.411 65.9578 131.411 65.8267 131.542L66.2201 131.411C63.0727 130.886 60.5811 131.017 57.4338 130.624C58.3517 130.755 59.532 130.886 58.7452 130.886C57.8272 130.755 56.7781 130.624 55.8601 130.493H56.5158L52.1882 129.837L52.7128 130.099C50.6145 129.837 49.9588 129.444 47.5983 129.312C46.5492 129.312 49.5654 129.837 47.3361 129.575C45.8935 129.312 44.1887 129.05 42.3528 128.657C41.9594 128.526 41.4348 128.526 40.9103 128.394C40.2546 128.263 40.3857 128.263 40.2546 128.263L39.9923 127.87C39.8612 127.739 39.8611 127.608 39.73 127.345C39.5989 127.214 39.5989 127.083 39.5989 126.952C39.5989 126.821 39.5989 126.821 39.5989 126.558C39.4677 126.821 39.4677 126.034 39.5989 125.116L39.73 124.985C40.1234 123.28 40.3857 122.887 40.5169 122.493C40.648 122.362 40.648 122.1 40.7791 121.706C40.7791 121.444 40.9103 121.182 40.9103 120.92C40.9103 120.788 40.9103 120.526 40.9103 120.264C40.9103 120.133 40.9103 120.133 40.9103 120.002C40.9103 119.87 40.9103 119.739 40.9103 119.608L41.0414 120.002L40.7791 118.952C40.7791 115.412 41.1725 117.116 40.9103 113.182C40.9103 114.756 40.648 113.838 40.648 112.002L40.7791 112.527C40.7791 111.477 40.7791 111.084 40.7791 110.428C40.9103 111.084 40.9103 110.691 40.9103 109.248L41.0414 110.297L40.7791 107.412C40.9103 105.183 40.648 101.642 40.7791 100.855C40.7791 100.855 40.7791 96.1342 40.5169 95.0851C40.648 96.0031 40.648 93.3803 40.7791 94.1672C40.648 92.9869 40.5168 89.315 40.648 87.8725V88.1348C40.9103 82.7581 40.7791 79.0862 41.566 74.3652C41.4348 74.4963 41.566 73.8406 41.566 73.3161C41.6971 72.6604 41.566 72.267 41.4348 72.5292C41.566 67.546 41.9594 63.3495 41.3037 61.5136C41.1725 59.2842 41.3037 58.7596 41.1725 57.5794L41.3037 58.1039C40.9103 53.9075 40.648 52.5961 40.2546 49.4488C39.9923 47.8751 39.5989 47.744 39.3366 44.8589C39.5989 45.7769 39.3366 44.5966 39.3366 43.5475C39.4677 44.2032 39.4677 44.4655 39.4677 43.023C39.4677 42.8918 39.3366 42.4984 39.3366 42.2361C39.3366 42.2361 39.3366 42.105 39.3366 42.2361C39.0743 40.5313 39.0743 40.7936 39.2055 41.5804C39.2055 41.5804 39.2055 41.5804 39.2055 41.8427C39.0743 40.0068 38.6809 36.7283 38.9432 36.5972C38.812 35.2858 38.812 34.1055 38.6809 32.9253C38.6809 32.4007 38.5498 31.745 38.5498 31.2205C38.5498 30.827 38.5498 30.3025 38.4186 29.9091C38.2875 29.7779 38.5498 29.6468 38.6809 29.6468L38.812 29.5157L39.0743 29.3845C39.4677 29.1222 39.9923 28.9911 40.5169 28.86C41.4348 28.4665 42.4839 28.3354 43.533 28.0731C44.0576 28.0731 43.0085 28.3354 41.8282 28.7288C42.8774 28.4665 43.7953 28.2043 44.8444 28.0731C44.8444 28.2043 43.1396 28.4665 42.2217 28.7288C45.7624 28.2043 49.6966 27.2863 54.0242 27.1552L54.9421 27.024H55.2044C55.2044 27.024 56.1224 26.7617 56.7781 26.7617C57.4338 26.8929 56.7781 27.024 58.8763 26.8929C60.5811 26.8929 63.7284 26.4995 65.9578 26.3683C64.7775 26.3683 65.171 26.3683 65.6955 26.2372C66.7446 26.2372 67.4003 26.2372 68.1872 26.2372L68.3183 26.3683C67.9249 26.2372 71.0722 26.106 71.4656 25.9749C72.1213 26.106 69.7608 26.106 69.4986 26.2372C73.8261 26.106 71.7279 26.106 76.0555 25.9749C78.416 25.8438 75.6621 25.8438 76.7112 25.5815C78.8094 25.4503 80.7765 25.3192 83.137 25.3192L82.3502 25.1881C86.1532 24.9258 88.5137 24.9258 91.0053 25.0569C98.0869 24.5324 102.152 24.139 103.988 23.7455C105.824 23.221 105.693 23.0898 104.644 23.0898C102.283 23.0898 97.0377 23.221 97.0377 23.221C86.5466 23.8767 80.6454 24.2701 67.2692 24.9258Z" fill="#084242"/>
<path d="M124.181 46.4323C124.312 46.3012 124.049 46.1701 123.787 46.1701C123.525 46.3012 123.525 46.4323 123.525 46.5635C123.131 49.7108 122.738 52.5959 123.263 55.612C123.525 57.1857 123.525 62.0378 123.525 63.6115C123.918 72.7912 125.23 78.9547 126.41 88.1345C126.541 88.9213 126.934 89.9704 128.115 89.9704C128.508 88.3967 128.115 86.6919 127.852 85.1183C126.934 78.1679 129.557 71.2176 129.82 64.2672C129.951 59.4151 128.902 54.4318 130.082 49.7108C130.344 48.7928 130.606 47.7437 129.82 47.088C129.426 46.6946 128.639 46.4323 127.984 46.1701C126.279 45.7766 124.443 45.7766 122.738 46.1701" fill="#F4ECFD"/>
<path d="M76.3178 21.6468C66.0889 22.0403 63.335 21.9091 52.7128 22.6959C47.5983 23.0894 42.2216 23.4828 37.2384 24.2696C36.9761 24.4008 36.5827 24.4008 36.3204 24.5319C36.0581 24.5319 35.927 24.663 35.6647 24.663C35.4024 24.663 35.009 24.7942 34.6156 24.7942L34.091 24.9253H33.8288H33.6976V25.0564C33.6976 25.4499 33.6976 25.8433 33.6976 26.1056C33.6976 26.6301 33.6976 27.2858 33.5665 27.8104C33.4353 29.5152 33.4353 31.22 33.4353 32.6625L33.3042 33.7116C33.3042 34.6296 33.3042 35.8098 33.3042 36.7278C33.4353 38.1703 33.3042 39.744 33.4353 40.5308V42.2357V41.9734C33.5665 44.465 33.5665 47.0878 33.5665 49.3172L33.6976 49.186C33.5665 54.0382 33.9599 55.743 33.9599 60.2017C34.6156 65.7095 33.9599 68.988 34.6156 74.627C34.4844 73.9713 34.4845 74.8893 34.4845 74.8893C34.6156 77.512 34.7467 80.266 35.009 80.3971C35.009 82.3642 35.009 81.9708 34.8779 82.233C35.009 82.233 35.1401 83.9378 35.1401 85.3804V84.7247L35.2713 89.0523L35.5336 88.2654C35.5336 90.4948 35.2713 88.79 35.2713 91.0193H35.5336C35.5336 94.1667 35.1401 96.0026 35.009 99.0188C34.8779 105.313 34.6156 111.739 34.091 118.165C33.6976 124.591 33.3042 131.017 33.5665 136.918L33.4353 137.443C33.3042 137.574 33.4353 138.361 33.6976 139.278C33.9599 140.196 34.3533 141.114 34.3533 141.377C34.6156 141.901 34.8779 142.295 35.2713 142.688C35.5336 143.082 36.1893 143.868 35.5336 143.213C36.0581 143.737 36.4515 143.999 36.7138 144.131C36.9761 144.262 37.2384 144.393 37.7629 144.524C38.2875 144.786 38.812 144.917 39.2055 145.049C42.0905 145.442 44.451 144.655 46.6804 144.262C47.8606 143.999 48.9097 143.868 50.09 143.606C51.2702 143.475 52.4505 143.344 53.7619 143.213C55.3355 143.082 57.1715 143.082 59.2697 142.95C61.3679 142.819 63.5973 142.819 65.9578 142.819C70.5477 142.819 75.1375 142.819 78.5471 142.95C88.1203 143.082 99.2671 145.049 109.103 144.786C109.365 144.786 110.283 144.786 110.283 144.786C113.299 144.786 116.315 144.786 119.331 144.655C119.331 144.655 119.987 144.655 121.167 144.524C122.348 144.393 123.921 144.262 125.626 144.131C126.544 143.999 127.462 143.999 128.642 143.475C129.167 143.213 129.822 142.819 130.216 142.164C130.609 141.508 130.74 140.852 130.74 140.196C130.74 139.016 130.609 138.098 130.478 137.18C130.347 136.262 130.347 135.344 130.216 134.557C129.822 131.148 129.56 128.919 129.298 129.443C129.167 129.705 129.167 130.754 129.036 132.722C129.036 133.771 129.036 134.951 129.036 136.393C129.036 137.18 129.036 137.967 129.036 138.885C129.036 139.803 129.036 140.721 128.642 141.114V140.983C128.249 141.639 127.331 141.77 126.413 141.901C125.364 142.032 124.446 142.032 123.528 142.164C121.823 142.426 120.249 142.557 118.413 142.688C118.151 142.557 117.102 142.557 116.053 142.688C115.004 142.688 113.824 142.819 113.299 142.688H113.43C111.988 142.819 110.414 142.819 108.84 142.688C107.267 142.557 105.824 142.557 104.382 142.557C104.513 142.557 104.513 142.426 105.168 142.426C103.07 142.426 100.185 142.295 100.054 142.164C95.0706 141.901 87.9891 141.377 84.8418 141.508H85.1041C83.2681 141.639 82.7436 141.377 80.6454 141.377C80.5142 141.377 80.3831 141.377 80.3831 141.377C78.416 141.508 74.4818 141.114 72.9082 141.114L72.777 140.983C71.4656 140.983 70.1542 140.852 68.7117 140.852H70.1542C69.6297 141.246 67.138 140.59 64.253 140.852C62.9416 140.852 61.4991 141.114 60.1877 141.246C58.7452 141.508 57.4338 141.77 55.9912 141.77C54.6798 142.032 57.1715 141.377 55.2044 141.639C55.0733 141.508 56.1224 141.508 55.5978 141.377C53.6307 141.639 52.3193 141.508 49.9588 141.901L49.8277 141.77C48.254 142.164 46.8115 142.295 45.369 142.557C43.9265 142.688 42.8773 142.95 41.8282 143.082C40.2546 143.213 39.73 143.082 39.3366 142.95C39.0743 142.819 38.812 142.819 38.5498 142.688C38.1563 142.557 37.7629 142.426 37.2384 142.032C36.9761 141.77 36.845 141.508 36.7138 141.114C36.4515 140.59 36.3204 140.459 36.1893 140.196C36.0581 139.934 35.927 139.803 35.7958 139.016C35.927 139.147 35.6647 137.18 35.7958 137.967C35.6647 134.426 35.1401 130.754 35.6647 125.902C35.5336 124.853 35.7958 122.493 35.6647 121.706C35.7958 121.575 36.0581 116.854 36.0581 119.608C36.0581 119.87 36.0581 120.263 35.927 120.263L36.0581 120.657C36.5827 117.903 36.3204 115.673 36.5827 112.92C36.4515 113.706 36.4515 114.756 36.3204 114.1L36.5827 111.608L36.7138 112.133C36.845 110.821 36.8449 109.641 36.9761 108.33L36.845 108.854C36.9761 107.018 37.3695 106.363 37.2384 104.264C37.1072 103.346 36.9761 105.969 36.9761 104.002C37.2384 101.51 37.3695 97.8386 37.5006 94.6912C37.3695 94.9535 37.3695 94.1667 37.3695 93.2487L37.5006 93.1176C37.2384 89.8391 37.7629 91.9373 37.6318 88.5277L37.7629 88.79L37.5006 87.872C37.2384 84.8558 37.7629 86.2983 37.3695 82.8887C37.3695 84.2001 37.1072 83.5444 37.1072 81.8396L37.2384 82.233C37.2384 81.3151 37.1072 81.0528 37.1072 80.3971C37.2384 80.9216 37.3695 80.6594 37.2384 79.348L37.3695 80.266L37.1072 77.7743C37.2384 75.8072 36.9761 72.791 37.1072 72.0042C37.1072 72.0042 37.1072 67.9389 36.845 66.8898C36.9761 67.6766 36.9761 65.4472 37.1072 66.1029C36.9761 65.0538 36.7138 61.9065 36.845 60.5951V60.8574C36.845 56.1364 36.3204 52.8579 36.4515 48.6615C36.3204 48.7926 36.3204 46.6944 36.1893 47.2189C35.927 42.8913 36.5827 39.3506 35.927 37.7769C35.927 35.8098 36.0581 35.4164 36.1893 34.4985V35.023C36.1893 31.3511 36.1893 30.302 36.3204 27.5481C36.3204 27.417 36.3204 27.2858 36.3204 27.0235C36.3204 26.8924 36.3204 26.8924 36.3204 26.7613C36.3204 26.6301 36.3204 26.499 36.1893 26.3678C36.3204 26.1056 36.5827 26.1056 37.8941 25.9744C37.1072 26.2367 38.1563 25.9744 39.0743 25.9744C38.5498 26.1056 38.2875 26.1056 39.4677 26.1056C39.5989 26.1056 39.8611 25.9744 40.1234 25.9744C41.566 25.7121 41.3037 25.7121 40.648 25.8433C40.648 25.8433 40.648 25.8433 40.3857 25.8433C41.9594 25.8433 44.7133 25.3187 44.9756 25.581C49.5654 25.1876 52.8439 24.663 56.6469 24.4008C57.0403 24.5319 56.2535 24.663 55.0733 24.7942L57.8272 24.5319C57.8272 24.663 56.2535 24.663 55.4667 24.7942C58.7451 24.7942 62.1548 24.1385 65.9578 24.1385L66.7446 24.0073H67.0069C67.0069 24.0073 67.7937 23.8762 68.4494 23.7451C68.974 23.8762 68.4494 24.0073 70.2854 23.8762C71.7279 23.8762 74.4818 23.6139 76.4489 23.4828C75.3998 23.4828 75.7932 23.4828 76.1866 23.3516C77.1046 23.3516 77.6292 23.3516 78.416 23.3516L78.5471 23.4828C78.1537 23.3516 81.0388 23.2205 81.3011 23.0894C81.8256 23.2205 79.8585 23.2205 79.5962 23.3516C83.3993 23.2205 81.4322 23.2205 85.2352 23.0894C87.2023 22.8271 84.8418 22.9582 85.7598 22.6959C87.5957 22.5648 89.3005 22.4337 91.2676 22.4337L90.6119 22.3025C93.8904 22.0403 95.9886 22.0403 98.218 22.1714C104.25 21.778 107.66 21.5157 109.496 21.3846C111.201 21.2534 111.07 21.1223 110.152 20.86C109.234 20.7289 107.529 20.5977 106.086 20.4666C104.644 20.3354 103.332 20.3354 103.332 20.3354C93.1035 20.3354 87.9891 20.9911 76.3178 21.6468Z" fill="#084242"/>
<path d="M129.425 54.561L129.294 54.6922C129.425 54.6922 129.425 54.6922 129.425 54.561Z" fill="#084242"/>
<path d="M127.589 52.4636C127.458 54.5618 127.064 55.0864 127.064 57.3158C126.933 58.3649 126.933 59.5451 126.933 60.4631C127.195 60.9876 126.802 61.7745 127.064 62.4302L126.933 62.6924C126.933 62.9547 127.064 63.0859 126.933 63.3481C127.064 63.6104 126.933 64.0038 126.933 64.135V64.5284V64.3973C127.064 64.9218 126.933 65.4464 126.933 65.9709H127.064C126.802 67.02 127.064 67.4134 126.802 68.2003C127.196 69.3805 126.409 70.0362 126.671 71.2165C126.671 71.0853 126.54 71.2165 126.54 71.2165C126.54 71.741 126.54 72.3967 126.802 72.3967C126.802 72.7901 126.671 72.659 126.54 72.7901C126.671 72.7901 126.671 73.1836 126.671 73.4458V73.3147V74.2327L126.933 74.1015C126.802 74.6261 126.671 74.2327 126.671 74.6261H126.933C126.802 75.2818 126.54 75.6752 126.278 76.1998C126.015 78.8225 126.409 81.7076 126.015 84.0681L125.884 84.1992C125.622 84.1992 126.146 84.8549 126.015 84.9861L126.146 85.2483C126.146 85.3795 126.015 85.5106 126.015 85.3795C126.015 85.6418 126.015 85.6418 126.146 85.904L126.015 86.1663C125.884 87.2154 126.146 88.1334 126.015 89.1825C125.622 90.4939 125.884 92.9855 126.146 94.4281C126.54 96.3951 125.622 98.7556 126.015 100.854C126.015 100.985 126.015 101.116 126.146 101.116V102.952C126.146 102.952 126.146 103.477 126.278 104.263C126.278 105.05 126.409 105.968 126.54 106.624C126.802 108.067 127.327 108.46 128.113 105.05C128.113 104.001 128.113 103.346 127.851 102.69C128.113 102.559 127.851 101.903 127.982 101.641C127.72 100.985 128.113 100.329 127.851 99.8048C127.851 99.8048 127.982 99.8048 127.982 99.9359C127.982 99.5425 127.851 98.8868 127.982 98.8868C127.982 97.8377 127.982 96.3951 127.72 95.7395C127.458 95.346 127.72 95.2149 127.589 94.8215C127.458 94.4281 127.589 93.6412 127.458 93.2478H127.589V92.461V92.7233C127.195 92.5921 127.851 92.0676 127.589 91.543C127.589 91.0185 126.933 90.3628 127.064 89.8382C126.933 89.5759 127.327 90.1005 127.195 89.7071C127.327 89.7071 127.327 89.9693 127.458 89.8382C127.327 89.4448 127.589 89.1825 127.589 88.658H127.72C127.458 88.0023 127.982 87.4777 127.72 86.9531C127.589 86.2975 128.113 86.5597 127.851 85.7729L127.982 85.5106C127.982 85.2483 127.72 85.2483 127.851 84.9861C127.982 84.9861 127.982 84.5927 128.113 84.7238C128.376 83.937 127.982 83.1501 128.245 82.2321C127.982 81.9699 128.245 81.4453 127.982 81.3142C128.113 81.3142 127.982 80.2651 128.245 80.9208V81.0519L128.376 81.183C128.638 80.6585 128.245 80.1339 128.376 79.6094C128.376 79.7405 128.376 80.0028 128.245 79.8716V79.3471L128.376 79.4782L128.507 78.6914L128.376 78.8225C128.507 78.4291 128.769 78.298 128.507 77.9046C128.376 77.6423 128.245 78.298 128.245 77.9046C128.376 77.38 128.507 76.5932 128.638 75.9375C128.507 75.9375 128.507 75.8063 128.507 75.6752H128.638C128.507 75.0195 128.9 75.4129 128.9 74.7572L129.031 74.8884L128.769 74.6261C128.507 73.9704 129.031 74.3638 128.769 73.577C128.769 73.8393 128.507 73.7081 128.507 73.3147L128.638 73.4458C128.638 73.3147 128.507 73.1836 128.638 73.0524C128.638 73.1836 128.769 73.1836 128.769 72.7901L128.9 72.9213L128.638 72.3967C128.769 72.0033 128.638 71.3476 128.9 71.2165C128.9 71.2165 129.031 70.4296 128.9 70.1674C129.031 70.2985 129.031 69.9051 129.294 70.0362C129.163 69.7739 129.031 69.1182 129.294 68.856C129.556 67.938 129.163 67.1512 129.425 66.3643C129.294 66.3643 129.425 65.9709 129.163 66.1021C129.031 65.1841 129.687 64.5284 129.031 64.135C129.031 63.7416 129.163 63.6104 129.294 63.4793V63.6104C129.294 62.8236 129.294 62.5613 129.294 62.0367C129.294 61.7745 128.9 61.6433 129.031 61.1188C129.163 61.2499 129.163 61.1188 129.163 60.8565C129.163 60.9876 129.163 60.9876 129.294 60.7254C129.294 60.7254 129.294 60.5942 129.163 60.5942C129.163 60.3319 129.163 60.3319 129.031 60.4631C129.031 60.4631 129.031 60.4631 128.9 60.4631C129.031 60.2008 128.9 59.5451 129.163 59.5451C129.163 58.6271 129.031 57.8403 129.031 57.0535C129.163 56.9223 129.163 57.1846 129.294 57.4469V56.9223C129.425 56.9223 129.425 57.3157 129.425 57.4469C129.687 56.7912 129.294 56.0044 129.556 55.2175L129.425 55.0864C129.425 55.0864 129.294 54.9552 129.294 54.8241C129.425 54.693 129.556 54.8241 129.556 54.4307C129.687 54.1684 129.556 53.5127 129.425 53.1193C129.425 53.3816 129.294 53.2504 129.294 53.1193C129.294 52.9882 129.425 52.857 129.425 52.7259H129.556C129.425 52.857 129.425 52.2013 129.294 52.0702C129.425 51.9391 129.425 52.3325 129.425 52.4636C129.425 51.6768 129.425 52.0702 129.425 51.2834C129.294 50.8899 129.294 51.4145 129.163 51.1522C129.163 50.7588 129.031 50.3654 129.163 49.972L129.031 50.1031C128.9 49.4474 129.031 48.9229 129.163 48.5294C128.113 43.2839 127.458 47.3492 127.458 47.3492C127.196 49.054 127.589 50.1031 127.589 52.4636Z" fill="#084242"/>
<path d="M51.7944 41.5776C51.9256 41.7087 51.9256 41.5776 51.7944 41.5776V41.5776Z" fill="#084242"/>
<path d="M50.7429 43.5457C51.792 43.6769 52.0543 44.0703 53.2345 43.9392C53.7591 43.9392 54.4148 43.9392 54.9393 43.9392C55.2016 43.6769 55.595 43.9392 55.9884 43.808L56.1196 43.9392C56.2507 43.808 56.3818 43.808 56.3818 43.9392C56.513 43.808 56.6441 43.9392 56.7753 43.808H56.9064C57.1687 43.6769 57.431 43.6769 57.6932 43.6769V43.5457C58.2178 43.6769 58.3489 43.4146 58.8735 43.5457C59.398 43.1523 59.7915 43.808 60.4472 43.4146C60.316 43.4146 60.4472 43.5457 60.4472 43.5457C60.7094 43.5457 60.9717 43.4146 60.9717 43.1523C61.234 43.1523 61.1028 43.2835 61.234 43.4146C61.234 43.2835 61.3651 43.1523 61.4963 43.1523H61.3651L61.7585 43.0212L61.6274 42.7589C61.8897 42.7589 61.7585 43.0212 61.8897 43.0212V42.7589C62.2831 42.7589 62.4142 43.1523 62.8077 43.2835C64.119 43.2835 65.5616 42.6278 66.7418 42.89V43.0212C66.7418 43.2835 67.0041 42.6278 67.1352 42.89L67.2664 42.7589C67.2664 42.7589 67.3975 42.89 67.2664 42.89C67.3975 42.89 67.3975 42.89 67.5287 42.7589L67.6598 42.89C68.1844 43.0212 68.5778 42.6277 69.1023 42.7589C69.758 43.0212 70.9383 42.7589 71.7251 42.4966C72.7742 42.1032 73.8233 43.0212 74.8724 42.7589H75.0036L75.9216 42.89C75.9216 42.89 80.3803 43.2835 77.1018 41.0541C76.5772 40.9229 76.315 40.7918 75.9216 41.0541C75.9216 40.7918 75.5281 41.0541 75.397 40.9229C75.1347 41.1852 74.7413 40.6606 74.479 40.9229C74.479 40.9229 74.479 40.7918 74.6102 40.7918C74.3479 40.7918 74.0856 40.9229 74.0856 40.6606C73.561 40.6606 72.7742 40.6606 72.5119 40.9229C72.3808 41.1852 72.2497 40.9229 71.9874 41.0541C71.7251 41.3163 71.3317 41.0541 71.2005 41.1852V41.0541H70.8071H70.9383C70.9383 41.4475 70.676 40.7918 70.2826 41.0541C70.0203 41.0541 69.758 41.8409 69.4957 41.5786C69.3646 41.7098 69.6269 41.3163 69.3646 41.4475C69.3646 41.3163 69.4957 41.3163 69.3646 41.1852C69.1023 41.3163 68.9712 41.0541 68.7089 41.1852V41.0541C68.4466 41.3163 68.0532 40.9229 67.9221 41.1852C67.5287 41.3163 67.6598 40.7918 67.2664 41.0541L67.1352 40.9229C67.0041 40.9229 67.0041 41.1852 66.873 41.0541C66.873 40.9229 66.6107 40.9229 66.7418 40.7918C66.3484 40.6606 65.955 41.0541 65.4304 40.7918C65.2993 41.1852 65.037 41.0541 65.037 41.1852C65.037 41.0541 64.5125 41.1852 64.7747 40.9229H64.9059V40.7918C64.6436 40.5295 64.3813 40.9229 64.119 40.9229C64.2502 40.9229 64.3813 40.9229 64.2502 41.0541H63.9879V40.9229H63.5945V41.0541C63.4634 41.0541 63.3322 40.7918 63.0699 40.9229C62.9388 41.0541 63.2011 41.0541 63.0699 41.1852C62.8077 41.0541 62.4142 40.9229 62.152 40.9229C62.152 41.0541 62.152 41.0541 62.0208 41.0541V40.9229C61.6274 41.1852 61.8897 40.6606 61.4963 40.7918V40.6606L61.3651 40.9229C61.1028 41.1852 61.234 40.6606 60.8406 41.0541C60.9717 41.0541 60.9717 41.3163 60.7094 41.3163V41.1852C60.5783 41.1852 60.5783 41.3163 60.5783 41.3163C60.5783 41.1852 60.5783 41.1852 60.4472 41.1852L60.5783 41.0541L60.316 41.3163C60.0537 41.1852 59.7915 41.3163 59.6603 41.1852C59.6603 41.1852 59.2669 41.0541 59.1358 41.3163C59.2669 41.1852 59.0046 41.1852 59.0046 41.0541C58.8735 41.1852 58.6112 41.3163 58.4801 41.1852C57.9555 41.0541 57.6932 41.4475 57.1687 41.1852C57.1687 41.3163 56.9064 41.3163 57.0375 41.4475C56.6441 41.7098 56.2507 41.0541 56.1196 41.7098C55.8573 41.7098 55.8573 41.5786 55.7262 41.5786C55.3327 41.5786 55.2016 41.5786 54.9393 41.5786C54.8082 41.5786 54.8082 41.972 54.5459 41.8409C54.677 41.7098 54.5459 41.7098 54.4148 41.7098C54.4148 41.7098 54.5459 41.7098 54.4148 41.5786C54.4148 41.5786 54.4148 41.5786 54.2836 41.7098C54.1525 41.7098 54.1525 41.8409 54.2836 41.8409C54.2836 41.8409 54.2836 41.8409 54.2836 41.972C54.1525 41.8409 53.8902 41.972 53.7591 41.7098C53.2345 41.7098 52.9722 41.972 52.5788 41.972C52.5788 41.8409 52.5788 41.8409 52.71 41.7098H52.4477C52.4477 41.5786 52.5788 41.5786 52.71 41.5786C52.4477 41.3163 52.0543 41.7098 51.6608 41.5786L51.9231 41.7098L51.792 41.8409C51.792 41.7098 51.792 41.5786 51.6608 41.5786C51.5297 41.4475 51.2674 41.5786 51.0052 41.7098C51.1363 41.7098 51.0052 41.8409 51.0052 41.8409C50.874 41.8409 50.874 41.7098 50.7429 41.7098V41.5786C50.7429 41.7098 50.4806 41.7098 50.4806 41.8409C50.4806 41.7098 50.6117 41.7098 50.6117 41.7098C50.2183 41.7098 50.4806 41.7098 50.0872 41.7098C49.8249 41.8409 50.0872 41.8409 49.956 41.972C49.8249 41.972 49.5626 42.1032 49.4315 41.972V42.1032C49.0381 42.2343 48.9069 42.1032 48.6446 41.972C47.3333 42.3655 47.071 42.7589 47.2021 43.0212C47.3333 43.2835 47.8578 43.5457 47.8578 43.5457C48.9069 43.9392 49.4315 43.5457 50.7429 43.5457Z" fill="#084242"/>
<path d="M51.9239 47.481C53.3665 47.7432 53.7599 48.0055 55.2024 48.0055C55.8581 48.0055 56.6449 48.0055 57.4318 48.0055C57.8252 47.7432 58.3497 48.0055 58.7432 47.8744L58.8743 48.0055C59.0054 47.8744 59.1366 47.8744 59.2677 48.0055C59.53 47.8744 59.6611 48.0055 59.7923 47.8744H60.0545C60.448 47.7432 60.7102 47.7432 61.1037 47.7432V47.6121C61.7594 47.7432 62.0216 47.481 62.6773 47.6121C63.4642 47.2187 63.8576 47.8744 64.6444 47.481C64.5133 47.481 64.6444 47.6121 64.6444 47.6121C65.0378 47.6121 65.4313 47.481 65.4313 47.2187C65.6935 47.2187 65.6935 47.3498 65.6935 47.481C65.6935 47.3498 65.9558 47.2187 66.087 47.2187H65.9558L66.6115 47.0876L66.3492 46.9564C66.6115 46.9564 66.4804 47.2187 66.7427 47.2187V46.9564C67.1361 46.9564 67.3983 47.3498 67.9229 47.481C69.6277 47.481 71.5948 46.8253 73.1685 47.0876L73.2996 47.2187C73.2996 47.481 73.693 46.8253 73.8242 47.0876L73.9553 46.9564L74.0864 47.0876C74.2176 47.0876 74.2176 47.0876 74.3487 46.9564L74.4799 47.0876C75.1356 47.2187 75.7912 46.8253 76.4469 46.8253C77.3649 47.0876 78.9386 46.8253 79.8566 46.563C81.168 46.1696 82.7416 47.0876 84.053 46.8253H84.1842L85.3644 46.9564C85.3644 46.9564 91.3968 47.481 86.9381 45.2516C86.2824 45.1205 85.7578 44.9893 85.3644 45.2516C85.3644 44.9893 84.8399 45.2516 84.5776 45.1205C84.1842 45.3827 83.6596 44.8582 83.2662 45.1205C83.2662 45.1205 83.2662 44.9893 83.3973 44.9893C83.135 44.9893 82.7416 45.1205 82.6105 44.8582C81.9548 44.8582 80.9057 44.8582 80.5123 45.1205C80.25 45.3827 80.1189 45.1205 79.8566 45.2516C79.5943 45.5139 79.0697 45.2516 78.8075 45.3827V45.2516H78.2829H78.5452C78.5452 45.645 78.1518 44.9893 77.7583 45.2516C77.3649 45.2516 76.9715 46.0384 76.5781 45.7762C76.447 45.9073 76.7092 45.5139 76.4469 45.645C76.4469 45.5139 76.5781 45.5139 76.4469 45.3827C76.1847 45.5139 76.0535 45.2516 75.6601 45.3827V45.2516C75.2667 45.5139 74.8733 45.1205 74.4799 45.3827C74.0864 45.5139 74.2176 44.9893 73.693 45.2516L73.8242 44.9893C73.5619 44.9893 73.693 45.2516 73.4307 45.1205C73.4307 44.9893 73.1685 44.9893 73.2996 44.9893C72.7751 44.8582 72.2505 45.2516 71.5948 44.9893C71.4637 45.2516 71.0702 45.1205 71.0702 45.2516C71.0702 45.1205 70.4145 45.2516 70.808 44.9893H70.9391V44.8582C70.5457 44.5959 70.2834 44.9893 69.89 44.9893C70.0211 44.9893 70.1523 44.9893 70.0211 45.1205H69.6277L69.7588 44.9893H69.2343L69.3654 45.1205C69.1032 45.1205 68.972 44.8582 68.7097 44.9893C68.5786 45.1205 68.972 45.1205 68.7097 45.2516C68.3163 45.1205 67.7918 45.1205 67.3983 44.9893C67.3983 45.1205 67.2672 45.1205 67.2672 45.1205V44.9893C66.8738 45.2516 67.1361 44.7271 66.6115 44.8582V44.7271L66.3492 45.2516C65.9558 45.5139 66.087 44.9893 65.6935 45.3827C65.8247 45.3827 65.8247 45.645 65.5624 45.645V45.5139C65.4313 45.5139 65.4313 45.645 65.3001 45.645C65.4313 45.5139 65.3001 45.5139 65.169 45.5139L65.3001 45.3827L64.9067 45.645C64.6444 45.5139 64.251 45.645 64.1199 45.5139C64.1199 45.5139 63.5953 45.3827 63.4642 45.645C63.5953 45.5139 63.2019 45.5139 63.333 45.3827C63.2019 45.5139 62.8085 45.645 62.5462 45.5139C61.8905 45.3827 61.4971 45.7762 60.8414 45.5139C60.8414 45.645 60.5791 45.645 60.5791 45.7762C59.9234 46.0384 59.53 45.3827 59.2677 46.0384C59.0054 46.0384 59.0054 45.9073 58.7432 45.9073C58.2186 45.9073 58.0875 45.9073 57.694 45.9073C57.5629 45.9073 57.4318 46.3007 57.1695 46.1696C57.3006 46.0384 57.1695 46.0384 57.0384 46.0384C57.1695 46.0384 57.1695 46.0384 57.0384 45.9073C57.0384 45.9073 57.0384 45.9073 56.9072 46.0384C56.6449 46.0384 56.7761 46.1696 56.7761 46.1696C56.7761 46.1696 56.7761 46.1696 56.7761 46.3007C56.5138 46.1696 56.1204 46.3007 56.1204 46.0384C55.4647 46.0384 55.0713 46.3007 54.5467 46.3007C54.5467 46.1696 54.6778 46.1696 54.809 46.0384H54.4156C54.4156 45.9073 54.6778 45.9073 54.809 45.9073C54.4156 45.645 53.891 46.0384 53.3665 45.7762L53.2353 45.9073C53.2353 45.9073 53.1042 46.0384 52.973 46.0384C52.973 45.9073 52.973 45.7762 52.7108 45.7762C52.5796 45.645 52.1862 45.7762 51.7928 45.7762C51.9239 45.7762 51.9239 45.9073 51.7928 45.9073C51.6616 45.9073 51.6616 45.7762 51.5305 45.7762V45.645C51.5305 45.7762 51.1371 45.7762 51.1371 45.9073C51.1371 45.7762 51.3994 45.7762 51.3994 45.7762C50.8748 45.7762 51.1371 45.7762 50.6125 45.7762C50.3503 45.9073 50.6125 45.9073 50.4814 46.0384C50.2191 46.0384 49.9568 46.1696 49.6946 46.0384L49.8257 46.1696C49.3011 46.1696 49.0389 46.1696 48.7766 45.9073C46.9406 46.3007 46.6784 46.6941 46.9406 46.9564C47.2029 47.2187 47.8586 47.481 47.8586 47.481C49.4323 47.8744 50.2191 47.481 51.9239 47.481Z" fill="#084242"/>
<path d="M52.8455 64.9214C54.288 64.9214 54.6815 65.3148 56.124 65.1837C56.7797 65.1837 57.5665 65.0526 58.2222 65.0526C58.4845 64.7903 59.1402 65.0526 59.5336 64.7903L59.6647 64.9214C59.7959 64.7903 59.927 64.7903 60.0582 64.9214C60.3204 64.7903 60.4516 64.9214 60.5827 64.7903H60.845C61.2384 64.6592 61.5007 64.6592 61.8941 64.6592V64.528C62.5498 64.6592 62.8121 64.3969 63.4678 64.528C64.2546 64.1346 64.648 64.7903 65.4349 64.3969C65.3037 64.3969 65.4349 64.528 65.4349 64.528C65.8283 64.528 66.2217 64.3969 66.2217 64.1346C66.484 64.1346 66.484 64.2657 66.484 64.3969C66.484 64.2657 66.7463 64.1346 66.8774 64.1346H66.7463H67.4019L67.2708 63.8723C67.5331 64.0035 67.4019 64.1346 67.6642 64.1346V63.8723C68.0576 63.8723 68.3199 64.2657 68.8445 64.3969C70.5493 64.3969 72.5164 63.8723 74.09 64.2657L74.2212 64.3969C74.2212 64.6592 74.6146 64.0035 74.7457 64.2657L74.8769 64.1346L75.008 64.2657C75.1391 64.2657 75.1391 64.2657 75.2703 64.1346L75.4014 64.2657C76.0571 64.3969 76.7128 64.1346 77.3685 64.1346C78.2865 64.3969 79.8601 64.1346 80.7781 64.0035C82.0895 63.6101 83.6632 64.528 84.9746 64.1346C84.9746 64.1346 85.1057 64.1346 85.1057 64.0035H86.4171C86.4171 64.0035 92.4495 64.0035 87.8596 62.1675C87.2039 62.0364 86.6794 62.0364 86.2859 62.2987C86.1548 62.0364 85.7614 62.2987 85.4991 62.1675C85.1057 62.4298 84.5811 62.0364 84.1877 62.1675C84.1877 62.1675 84.1877 62.0364 84.3189 62.0364C84.0566 62.0364 83.6632 62.1675 83.6632 62.0364C83.0075 62.0364 81.9584 62.0364 81.5649 62.2987C81.3027 62.561 81.1715 62.2987 80.9093 62.4298C80.647 62.6921 80.1224 62.4298 79.8601 62.561V62.4298H79.3356H79.5979C79.4667 62.8232 79.2044 62.1676 78.811 62.4298C78.4176 62.4298 78.0242 63.0855 77.6308 62.9544C77.4996 63.0855 77.7619 62.6921 77.4996 62.8232C77.4996 62.6921 77.6308 62.6921 77.4996 62.561C77.2374 62.6921 77.1062 62.4298 76.7128 62.561V62.4298C76.3194 62.6921 75.926 62.2987 75.5326 62.561C75.1391 62.6921 75.2703 62.1676 74.7457 62.4298L74.6146 62.2987C74.3523 62.2987 74.4834 62.561 74.2212 62.4298C74.2212 62.2987 73.9589 62.2987 74.09 62.1675C73.5655 62.0364 73.0409 62.4298 72.3852 62.1675C72.2541 62.4298 71.8607 62.2987 71.8607 62.4298C71.8607 62.2987 71.205 62.4298 71.5984 62.1675H71.7295V62.0364C71.3361 61.7741 71.0738 62.1675 70.6804 62.1675C70.8116 62.1675 70.9427 62.1675 70.8116 62.2987H70.4181L70.5493 62.1675H70.0247L70.1559 62.2987C69.8936 62.1675 69.7624 62.0364 69.5002 62.1675C69.369 62.2987 69.7624 62.2987 69.5002 62.4298C69.1068 62.2987 68.5822 62.1675 68.1888 62.1675C68.1888 62.2987 68.0576 62.2987 68.0576 62.2987V62.1675C67.5331 62.4298 67.9265 61.9053 67.4019 62.0364V61.9053L67.2708 62.1675C66.8774 62.4298 67.0085 61.9053 66.6151 62.2987C66.7462 62.2987 66.7462 62.561 66.484 62.561V62.4298C66.3528 62.4298 66.3528 62.561 66.2217 62.4298C66.3528 62.2987 66.2217 62.2987 66.0906 62.2987L66.2217 62.1675L65.8283 62.4298C65.566 62.2987 65.1726 62.4298 65.0414 62.2987C65.0414 62.2987 64.5169 62.1676 64.3857 62.4298C64.5169 62.2987 64.1235 62.2987 64.2546 62.1675C64.1235 62.2987 63.7301 62.4298 63.4678 62.2987C62.8121 62.1675 62.4187 62.561 61.763 62.2987C61.763 62.4298 61.5007 62.4298 61.5007 62.561C60.845 62.8232 60.4516 62.1675 60.1893 62.8232C59.927 62.8232 59.927 62.6921 59.6647 62.6921C59.1402 62.6921 59.009 62.8232 58.6156 62.6921C58.4845 62.6921 58.3534 63.0855 58.0911 62.9544C58.2222 62.8232 58.0911 62.8232 57.9599 62.8232C58.0911 62.8232 58.0911 62.8232 57.9599 62.6921C57.9599 62.6921 57.9599 62.6921 57.8288 62.8232C57.5665 62.8232 57.6977 62.9544 57.6977 62.9544C57.6977 62.9544 57.6977 62.9544 57.6977 63.0855C57.4354 62.9544 57.042 63.0855 57.042 62.9544C56.3863 62.9544 55.9929 63.2166 55.4683 63.3478C55.4683 63.2166 55.4683 63.2166 55.7306 63.0855H55.3372C55.3372 62.9544 55.5994 62.9544 55.7306 62.9544C55.3372 62.6921 54.8126 63.2166 54.2881 62.9544L54.1569 63.0855L54.0258 63.2166C53.8946 63.0855 54.0258 62.9544 53.7635 62.9544C53.5012 62.8232 53.2389 63.0855 52.8455 63.0855C52.9767 63.0855 52.9767 63.2166 52.8455 63.2166C52.7144 63.2166 52.5832 63.0855 52.5832 63.2166V63.0855C52.5832 63.2166 52.1898 63.2166 52.1898 63.3478C52.0587 63.2166 52.4521 63.2166 52.4521 63.0855C51.9276 63.0855 52.1898 63.0855 51.6653 63.0855C51.403 63.2166 51.6653 63.2166 51.5341 63.3478C51.2719 63.3478 51.0096 63.4789 50.7473 63.3478L50.8784 63.4789C50.3539 63.6101 50.0916 63.6101 49.8293 63.4789C46.4197 64.7903 49.1736 65.1837 49.1736 65.1837C50.6162 65.5771 51.2718 65.0526 52.8455 64.9214Z" fill="#084242"/>
<path d="M93.5001 64.0028C94.1558 64.134 94.2869 64.3962 94.8115 64.2651C95.0738 64.2651 95.4672 64.2651 95.7295 64.134C95.8606 63.8717 96.1229 64.134 96.254 64.0028V64.134C96.254 64.0028 96.3852 64.0028 96.3852 64.134C96.5163 64.0028 96.5163 64.134 96.6475 64.0028H96.7786C96.9097 63.8717 97.0409 63.8717 97.172 64.0028V63.8717C97.4343 64.0028 97.5654 63.7406 97.8277 63.8717C98.09 63.4783 98.3523 64.134 98.6145 63.7406V63.8717C98.7457 63.8717 98.8768 63.7406 98.8768 63.4783C99.008 63.4783 99.008 63.6094 99.008 63.7406C99.008 63.6094 99.1391 63.6094 99.1391 63.4783H99.4014V63.216C99.5325 63.3471 99.4014 63.4783 99.5325 63.4783V63.216C99.6637 63.216 99.7948 63.6094 100.057 63.7406C100.844 63.8717 101.631 63.3471 102.286 63.6094V63.7406C102.286 64.0028 102.418 63.3471 102.549 63.6094L102.68 63.4783C102.68 63.4783 102.811 63.6094 102.68 63.6094C102.811 63.6094 102.811 63.6094 102.811 63.4783L102.942 63.6094C103.204 63.7405 103.467 63.4783 103.729 63.4783C104.122 63.7406 104.778 63.4783 105.172 63.3471C105.696 62.9537 106.352 64.0028 107.007 63.4783C107.007 63.4783 107.139 63.4783 107.139 63.3471H107.663C107.663 63.3471 110.155 63.4783 108.319 61.5112C108.057 61.38 107.794 61.38 107.663 61.6423C107.663 61.38 107.401 61.6423 107.401 61.5112C107.27 61.7734 107.007 61.2489 106.876 61.5112V61.38C106.745 61.38 106.614 61.5112 106.614 61.2489C106.352 61.2489 105.958 61.2489 105.696 61.5112C105.565 61.7734 105.565 61.5112 105.434 61.6423C105.303 61.7734 105.04 61.6423 105.04 61.7735V61.6423H104.778H104.909C104.909 62.0357 104.778 61.38 104.516 61.6423C104.385 61.6423 104.254 62.298 103.991 62.1669C103.86 62.298 104.122 61.9046 103.991 62.0357C103.991 61.9046 103.991 61.9046 103.991 61.7735C103.86 61.9046 103.86 61.6423 103.598 61.7735V61.6423C103.467 61.9046 103.204 61.5112 103.073 61.6423C102.942 61.7734 102.942 61.2489 102.811 61.5112L102.68 61.38C102.549 61.38 102.68 61.6423 102.549 61.5112C102.549 61.38 102.418 61.38 102.549 61.2489C102.286 61.1178 102.155 61.5112 101.893 61.2489C101.893 61.5112 101.631 61.38 101.631 61.5112C101.631 61.38 101.368 61.5112 101.5 61.2489V61.1178C101.368 60.8555 101.237 61.2489 101.106 61.2489C101.106 61.2489 101.237 61.2489 101.237 61.38H101.106V61.2489L100.844 61.1178V61.2489C100.713 61.1178 100.713 60.9866 100.582 61.1178C100.582 61.2489 100.713 61.2489 100.582 61.38C100.45 61.2489 100.188 61.1178 100.057 61.1178C100.057 61.2489 100.057 61.2489 99.9259 61.2489V61.1178C99.7948 61.2489 99.7948 60.8555 99.6637 60.9866V60.8555V61.1178C99.5325 61.38 99.5325 60.8555 99.4014 61.2489C99.5325 61.2489 99.4014 61.5112 99.4014 61.5112V61.38C99.4014 61.38 99.2702 61.5112 99.2702 61.38C99.2702 61.2489 99.2702 61.2489 99.2702 61.2489V61.1178L99.1391 61.38C99.008 61.2489 98.8768 61.38 98.7457 61.2489C98.7457 61.2489 98.4834 61.1178 98.4834 61.38C98.4834 61.2489 98.3523 61.2489 98.4834 61.1178C98.4834 61.2489 98.2211 61.38 98.2211 61.2489C97.9589 61.1178 97.6966 61.5112 97.5654 61.2489C97.5654 61.38 97.4343 61.38 97.4343 61.5112C97.172 61.7734 96.9097 61.1178 96.9097 61.7735C96.7786 61.7735 96.7786 61.6423 96.7786 61.6423C96.5163 61.6423 96.5163 61.6423 96.3852 61.6423C96.254 61.6423 96.254 62.0357 96.1229 61.9046C96.1229 61.7735 96.1229 61.7735 96.1229 61.7735C96.1229 61.7735 96.1229 61.7734 96.1229 61.6423C96.1229 61.6423 96.1229 61.6423 96.1229 61.7735C95.9918 61.7735 95.9918 61.9046 96.1229 61.9046C96.1229 61.9046 96.1229 61.9046 96.1229 62.0357C95.9918 61.9046 95.8606 62.0357 95.8606 61.9046C95.5983 61.9046 95.3361 62.1669 95.2049 62.1669C95.2049 62.0357 95.2049 62.0357 95.3361 61.9046H95.2049C95.2049 61.7735 95.3361 61.7735 95.3361 61.7735C95.2049 61.5112 94.9426 62.0357 94.6804 61.7735V61.9046C94.6804 61.9046 94.6804 62.0357 94.5492 62.0357C94.5492 61.9046 94.5492 61.7735 94.4181 61.7735C94.287 61.6423 94.1558 61.7735 94.0247 61.9046V62.0357L93.8935 61.9046V61.7735C93.8935 61.9046 93.7624 61.9046 93.7624 62.0357C93.7624 61.9046 93.8935 61.9046 93.8935 61.7735C93.6313 61.7735 93.7624 61.7735 93.5001 61.7735C93.369 61.9046 93.5001 61.9046 93.5001 62.0357C93.369 62.0357 93.2378 62.1669 93.2378 62.0357V62.1669C93.1067 62.298 92.9756 62.298 92.8444 62.1669C91.4019 63.4783 92.5821 63.8717 92.5821 63.8717C92.451 64.5274 92.8444 64.0028 93.5001 64.0028Z" fill="#084242"/>
<path d="M76.1837 69.1203C77.364 69.2515 77.6263 69.6449 78.9376 69.5137C79.5933 69.5137 80.1179 69.5137 80.7736 69.5137C81.0359 69.2514 81.5604 69.5137 81.8227 69.3826L81.9538 69.5137C82.085 69.5137 82.2161 69.3826 82.3473 69.5137C82.4784 69.3826 82.7407 69.5137 82.7407 69.3826H83.0029C83.2652 69.2514 83.6586 69.2514 83.9209 69.3826V69.2514C84.4455 69.5137 84.7078 69.1203 85.2323 69.3826C85.888 68.9892 86.2814 69.6449 86.9371 69.3826C86.806 69.3826 86.9371 69.5137 86.9371 69.5137C87.1994 69.5137 87.5928 69.5137 87.5928 69.1203C87.8551 69.1203 87.7239 69.2514 87.8551 69.3826C87.8551 69.2514 88.1174 69.2515 88.2485 69.1203H88.1174H88.6419L88.5108 68.858C88.7731 68.9892 88.5108 69.1203 88.773 69.1203V68.858C89.1665 68.858 89.2976 69.2514 89.691 69.3826C91.1335 69.5137 92.7072 68.9892 94.1497 69.3826V69.5137C94.1497 69.776 94.5431 69.1203 94.5431 69.3826L94.6743 69.2514C94.6743 69.2514 94.8054 69.3826 94.6743 69.3826C94.8054 69.3826 94.8054 69.3826 94.9366 69.2514L95.0677 69.3826C95.5923 69.5137 96.1168 69.2514 96.7725 69.2514C97.5593 69.5137 98.8707 69.2515 99.6576 68.9892C100.707 68.5958 102.149 69.5137 103.198 68.9892C103.198 68.9892 103.329 68.9892 103.329 68.858H104.379C104.379 68.858 109.493 68.7269 105.559 66.891C105.034 66.7598 104.641 66.7598 104.247 67.0221C104.116 66.7598 103.723 67.0221 103.592 66.891C103.198 67.1532 102.805 66.7598 102.543 66.891C102.543 66.891 102.543 66.7598 102.674 66.7598C102.411 66.7598 102.149 66.891 102.018 66.7598C101.493 66.891 100.576 66.7598 100.313 67.0221C100.051 67.2844 100.051 67.0221 99.7887 67.1532C99.5264 67.4155 99.133 67.1532 98.8707 67.2844V67.1532H98.3462H98.4773C98.4773 67.5467 98.0839 66.891 97.8216 67.1532C97.5593 67.1532 97.1659 67.8089 96.9037 67.6778C96.7725 67.8089 97.0348 67.4155 96.7725 67.5467C96.7725 67.4155 96.9036 67.4155 96.7725 67.2844C96.5102 67.4155 96.3791 67.1532 96.1168 67.2844V67.1532C95.7234 67.4155 95.4611 67.0221 95.1988 67.2844C94.8054 67.4155 94.9366 66.891 94.5431 67.1532L94.412 67.0221C94.2809 67.0221 94.2809 67.2844 94.1497 67.1532C94.1497 67.0221 93.8875 67.0221 94.0186 66.891C93.6252 66.7598 93.1006 67.1532 92.5761 66.891C92.4449 67.1532 92.1827 67.0221 92.0515 67.1532C92.0515 67.0221 91.527 67.1532 91.7892 66.891H91.9204V66.7598C91.6581 66.4976 91.3958 66.891 91.0024 66.891C91.1335 66.891 91.2647 66.891 91.1335 67.0221H90.8713V66.891L90.4779 66.7598V66.891C90.2156 66.7598 90.2156 66.6287 89.9533 66.7598C89.8222 66.891 90.2156 66.891 89.9533 67.0221C89.691 66.891 89.2976 66.7598 88.9042 66.7598C88.9042 66.891 88.773 66.891 88.773 66.891V66.7598C88.3796 66.891 88.6419 66.4976 88.2485 66.6287V66.4976L88.1174 66.7598C87.7239 67.0221 87.9862 66.4976 87.5928 66.891C87.7239 66.891 87.5928 67.1532 87.4617 67.1532V67.0221C87.3305 67.0221 87.3305 67.1532 87.1994 67.0221C87.1994 66.891 87.1994 66.891 87.0683 66.891L87.1994 66.7598L86.9371 67.0221C86.6748 66.891 86.4125 67.0221 86.2814 66.891C86.2814 66.891 85.7569 66.7598 85.6257 67.0221C85.7569 66.891 85.4946 66.891 85.4946 66.7598C85.3634 66.891 84.97 67.0221 84.8389 66.891C84.3143 66.7598 83.9209 67.0221 83.3964 66.891C83.3964 67.0221 83.1341 66.891 83.2652 67.1532C82.7407 67.2844 82.3473 66.7598 82.2161 67.2844C81.9538 67.2844 81.9538 67.1532 81.8227 67.1532C81.4293 67.1532 81.2981 67.1532 80.9047 67.1532C80.7736 67.1532 80.6424 67.5467 80.3802 67.4155C80.5113 67.2844 80.3802 67.2844 80.249 67.2844C80.3802 67.2844 80.3802 67.2844 80.249 67.1532C80.249 67.1532 80.249 67.1532 80.1179 67.2844C79.9868 67.2844 79.9868 67.4155 79.9868 67.4155C79.9868 67.4155 79.9868 67.4155 79.9868 67.5467C79.8556 67.4155 79.4622 67.5467 79.4622 67.2844C78.9376 67.2844 78.5442 67.5467 78.0197 67.5467C78.0197 67.4155 78.0197 67.4155 78.1508 67.2844H77.8885C77.8885 67.1532 78.0197 67.1532 78.1508 67.1532C77.7574 66.891 77.364 67.2844 76.9706 67.1532L77.4951 67.2844L77.364 67.4155C77.364 67.2844 77.364 67.1532 77.2329 67.1532C77.1017 67.0221 76.7083 67.1532 76.446 67.2844C76.5771 67.2844 76.5771 67.4155 76.446 67.4155C76.3149 67.4155 76.3149 67.2844 76.1837 67.2844V67.1532C76.1837 67.2844 75.9215 67.2844 75.7903 67.4155C75.7903 67.2844 75.9215 67.2844 76.0526 67.2844C75.6592 67.2844 75.7903 67.2844 75.3969 67.2844C75.1346 67.4155 75.3969 67.4155 75.2658 67.5467C75.0035 67.5467 74.8724 67.6778 74.6101 67.5467V67.6778C74.2167 67.8089 73.9544 67.6778 73.6921 67.5467C70.6759 68.5958 72.9053 69.2514 72.9053 69.2514C74.2167 69.6449 74.7412 69.2515 76.1837 69.1203Z" fill="#084242"/>
<path d="M51.6633 68.5947C51.7945 68.7258 51.7945 68.5947 51.6633 68.5947V68.5947Z" fill="#084242"/>
<path d="M50.8738 70.5614C51.7918 70.6926 51.9229 70.9548 52.7098 70.8237C53.1032 70.8237 53.3655 70.6926 53.7589 70.6926C53.89 70.4303 54.1523 70.6926 54.4146 70.4303L54.5457 70.5614C54.5457 70.4303 54.6768 70.4303 54.808 70.5614C54.9391 70.4303 55.0703 70.5614 55.0703 70.4303H55.2014C55.3325 70.2991 55.5948 70.2991 55.726 70.2991V70.168C56.1194 70.2991 56.1194 70.0369 56.5128 70.168C56.9062 69.7746 57.1685 70.4303 57.5619 70.0369V70.168C57.693 70.168 57.9553 70.0369 57.9553 69.7746C58.0864 69.7746 58.0864 69.9057 58.0864 70.0369C58.0864 69.9057 58.2176 69.7746 58.3487 69.7746H58.611L58.4799 69.5123C58.611 69.6434 58.4799 69.7746 58.7421 69.7746V69.5123C59.0044 69.5123 59.1356 69.9057 59.2667 70.0369C60.1847 70.0369 61.1026 69.5123 61.8895 69.9057V70.0369C61.8895 70.2991 62.1518 69.6434 62.1518 69.9057L62.2829 69.7746C62.2829 69.7746 62.414 69.9057 62.2829 69.9057C62.414 69.9057 62.414 69.9057 62.414 69.7746L62.5452 69.9057C62.9386 70.0369 63.2009 69.7746 63.5943 69.7746C63.9877 70.0369 64.9057 69.7746 65.2991 69.5123C65.9548 69.1189 66.7416 70.0369 67.3973 69.6434C67.3973 69.6434 67.5284 69.6434 67.5284 69.5123H68.1841C68.1841 69.5123 71.2003 69.5123 68.8398 67.6763C68.4464 67.5452 68.3153 67.5452 68.053 67.8075C68.053 67.5452 67.7907 67.8075 67.6596 67.6763C67.5284 67.9386 67.2662 67.5452 67.0039 67.6763V67.5452C66.8727 67.5452 66.6105 67.6763 66.6105 67.5452C66.217 67.5452 65.8236 67.5452 65.5614 67.8075C65.4302 68.0698 65.4302 67.8075 65.2991 67.9386C65.1679 68.2009 64.9057 67.9386 64.7745 68.0698V67.9386H64.5122H64.6434C64.6434 68.332 64.3811 67.6763 64.25 67.9386C64.1188 67.9386 63.8566 68.5943 63.7254 68.4632C63.5943 68.5943 63.8566 68.2009 63.7254 68.332C63.7254 68.2009 63.7254 68.2009 63.7254 68.0698C63.5943 68.2009 63.4631 67.9386 63.332 68.0698V67.9386C63.0697 68.2009 62.9386 67.8075 62.8074 68.0698C62.5452 68.2009 62.6763 67.6763 62.414 67.9386L62.2829 67.8075C62.1518 67.8075 62.2829 68.0698 62.1518 67.9386C62.1518 67.8075 62.0206 67.8075 62.0206 67.6763C61.7583 67.5452 61.4961 67.9386 61.2338 67.6763C61.2338 67.9386 60.9715 67.8075 60.9715 67.9386C60.9715 67.8075 60.5781 67.9386 60.8404 67.6763V67.5452C60.5781 67.2829 60.4469 67.6763 60.3158 67.6763C60.3158 67.6763 60.4469 67.6763 60.4469 67.8075H60.3158V67.6763H60.0535V67.8075C59.9224 67.6763 59.9224 67.5452 59.7913 67.6763C59.7913 67.8075 59.9224 67.8075 59.7913 67.9386C59.6601 67.8075 59.3978 67.6763 59.1356 67.6763C59.1356 67.8075 59.1356 67.8075 59.0044 67.8075V67.6763C58.7421 67.9386 58.8733 67.4141 58.7421 67.5452V67.4141V67.6763C58.611 67.9386 58.611 67.4141 58.3487 67.8075C58.4799 67.8075 58.3487 68.0698 58.3487 68.0698V67.9386C58.3487 67.9386 58.2176 68.0698 58.2176 67.9386C58.2176 67.8075 58.2176 67.8075 58.0864 67.8075V67.6763L57.9553 67.9386C57.8242 67.8075 57.5619 67.9386 57.5619 67.8075C57.5619 67.8075 57.2996 67.6763 57.1685 67.9386C57.1685 67.8075 57.0373 67.8075 57.1685 67.6763C57.0373 67.8075 56.9062 67.9386 56.7751 67.8075C56.5128 67.6763 56.2505 68.0698 55.9882 67.8075C55.9882 67.9386 55.8571 67.9386 55.8571 68.0698C55.5948 68.332 55.3325 67.6763 55.2014 68.332C54.5457 68.5943 54.5457 68.4632 54.5457 68.332C54.2834 68.332 54.2834 68.4632 54.0211 68.332C53.89 68.332 53.89 68.7255 53.7589 68.5943C53.7589 68.4632 53.7589 68.4632 53.6277 68.4632C53.6277 68.4632 53.6277 68.4632 53.6277 68.332C53.6277 68.332 53.6277 68.332 53.6277 68.4632C53.4966 68.4632 53.4966 68.5943 53.6277 68.5943C53.6277 68.5943 53.6277 68.5943 53.6277 68.7255C53.4966 68.5943 53.3655 68.7255 53.3655 68.5943C53.1032 68.5943 52.8409 68.8566 52.5786 68.9877C52.5786 68.8566 52.5786 68.8566 52.7098 68.7255H52.5786C52.5786 68.5943 52.7098 68.5943 52.7098 68.5943C52.4475 68.332 52.1852 68.8566 52.0541 68.5943V68.7255C52.0541 68.7255 52.0541 68.8566 51.9229 68.8566C51.9229 68.7255 51.9229 68.5943 51.7918 68.5943C51.6607 68.4632 51.5295 68.5943 51.3984 68.7255V68.8566C51.3984 68.8566 51.3984 68.7255 51.2672 68.7255V68.5943C51.2672 68.7255 51.1361 68.7255 51.1361 68.8566C51.1361 68.7255 51.2672 68.7255 51.2672 68.7255C51.1361 68.7255 51.1361 68.7255 51.005 68.7255C50.8738 68.8566 51.005 68.8566 50.8738 68.9877C50.7427 68.9877 50.6115 68.9877 50.6115 68.8566V68.9877C50.3493 68.9877 50.2181 68.8566 50.3493 68.7255C49.8247 68.7255 49.5624 68.5943 49.3002 68.5943C49.0379 68.5943 48.9067 68.7255 48.7756 68.8566C48.6445 68.9877 48.6445 69.1189 48.7756 69.3812C48.7756 69.5123 48.9067 69.6434 48.9067 69.6434C48.7756 70.4303 49.8247 70.5614 50.8738 70.5614Z" fill="#084242"/>
<path d="M52.8455 75.4126C54.288 75.4126 54.6815 75.8061 56.124 75.6749C56.7797 75.6749 57.5665 75.5438 58.2222 75.5438C58.4845 75.2815 59.1402 75.5438 59.5336 75.2815L59.6647 75.4126C59.7959 75.2815 59.927 75.2815 60.0582 75.4126C60.3204 75.2815 60.4516 75.4126 60.5827 75.2815H60.845C61.2384 75.1504 61.5007 75.1504 61.8941 75.1504V75.0192C62.5498 75.1504 62.8121 74.8881 63.4678 75.0192C64.2546 74.6258 64.648 75.2815 65.4349 74.8881C65.3037 74.8881 65.4349 75.0192 65.4349 75.0192C65.8283 75.0192 66.2217 74.8881 66.2217 74.6258C66.484 74.6258 66.484 74.757 66.484 74.8881C66.484 74.757 66.7463 74.6258 66.8774 74.6258H66.7463H67.4019L67.2708 74.3635C67.5331 74.4947 67.4019 74.6258 67.6642 74.6258V74.3635C68.0576 74.3635 68.3199 74.757 68.8445 74.8881C70.5493 74.8881 72.5164 74.3635 74.09 74.757L74.2212 74.8881C74.2212 75.1504 74.6146 74.4947 74.7457 74.757L74.8769 74.6258L75.008 74.757C75.1391 74.757 75.1391 74.757 75.2703 74.6258L75.4014 74.757C76.0571 74.8881 76.7128 74.6258 77.3685 74.6258C78.2865 74.8881 79.8601 74.6258 80.7781 74.4947C82.0895 74.1013 83.6632 75.0192 84.9746 74.6258C84.9746 74.6258 85.1057 74.6258 85.1057 74.4947H86.4171C86.4171 74.4947 92.4495 74.4947 87.8596 72.6588C87.2039 72.5276 86.6794 72.5276 86.2859 72.7899C86.1548 72.5276 85.7614 72.7899 85.4991 72.6588C85.1057 72.921 84.5811 72.5276 84.1877 72.6588C84.1877 72.6588 84.1877 72.5276 84.3189 72.5276C84.0566 72.5276 83.6632 72.6588 83.6632 72.5276C83.0075 72.5276 81.9584 72.5276 81.5649 72.7899C81.3027 73.0522 81.1715 72.7899 80.9093 72.921C80.647 73.1833 80.1224 72.921 79.8601 73.0522V72.921H79.3356H79.5979C79.4667 73.3144 79.2044 72.6588 78.811 72.921C78.4176 72.921 78.0242 73.5767 77.6308 73.4456C77.4996 73.5767 77.7619 73.1833 77.4996 73.3144C77.4996 73.1833 77.6308 73.1833 77.4996 73.0522C77.2374 73.1833 77.1062 72.921 76.7128 73.0522V72.921C76.3194 73.1833 75.926 72.7899 75.5326 73.0522C75.1391 73.1833 75.2703 72.6588 74.7457 72.921L74.6146 72.7899C74.3523 72.7899 74.4834 73.0522 74.2212 72.921C74.2212 72.7899 73.9589 72.7899 74.09 72.6588C73.5655 72.5276 73.0409 72.921 72.3852 72.6588C72.2541 72.921 71.8607 72.7899 71.8607 72.921C71.8607 72.7899 71.205 72.921 71.5984 72.6588H71.7295V72.5276C71.3361 72.2653 71.0738 72.6588 70.6804 72.6588C70.8116 72.6588 70.9427 72.6588 70.8116 72.7899H70.4181L70.5493 72.6588H70.0247L70.1559 72.7899C69.8936 72.6588 69.7624 72.5276 69.5002 72.6588C69.369 72.7899 69.7624 72.7899 69.5002 72.921C69.1068 72.7899 68.5822 72.6588 68.1888 72.6588C68.1888 72.7899 68.0576 72.7899 68.0576 72.7899V72.6588C67.5331 72.921 67.9265 72.3965 67.4019 72.5276V72.3965L67.2708 72.6588C66.8774 72.921 67.0085 72.3965 66.6151 72.7899C66.7462 72.7899 66.7462 73.0522 66.484 73.0522V72.921C66.3528 72.921 66.3528 73.0522 66.2217 72.921C66.3528 72.7899 66.2217 72.7899 66.0906 72.7899L66.2217 72.6588L65.8283 72.921C65.566 72.7899 65.1726 72.921 65.0414 72.7899C65.0414 72.7899 64.5169 72.6588 64.3857 72.921C64.5169 72.7899 64.1235 72.7899 64.2546 72.6588C64.1235 72.7899 63.7301 72.921 63.4678 72.7899C62.8121 72.6588 62.4187 73.0522 61.763 72.7899C61.763 72.921 61.5007 72.921 61.5007 73.0522C60.845 73.3144 60.4516 72.6588 60.1893 73.3144C59.927 73.3144 59.927 73.1833 59.6647 73.1833C59.1402 73.1833 59.009 73.3144 58.6156 73.1833C58.4845 73.1833 58.3534 73.5767 58.0911 73.4456C58.2222 73.3144 58.0911 73.3144 57.9599 73.3144C58.0911 73.3144 58.0911 73.3144 57.9599 73.1833C57.9599 73.1833 57.9599 73.1833 57.8288 73.3144C57.5665 73.3144 57.6977 73.4456 57.6977 73.4456C57.6977 73.4456 57.6977 73.4456 57.6977 73.5767C57.4354 73.4456 57.042 73.5767 57.042 73.4456C56.3863 73.4456 55.9929 73.7079 55.4683 73.839C55.4683 73.7079 55.4683 73.7079 55.7306 73.5767H55.3372C55.3372 73.4456 55.5994 73.4456 55.7306 73.4456C55.3372 73.1833 54.8126 73.7079 54.2881 73.4456L54.1569 73.5767L54.0258 73.7079C53.8946 73.5767 54.0258 73.4456 53.7635 73.4456C53.5012 73.3144 53.2389 73.5767 52.8455 73.5767C52.9767 73.5767 52.9767 73.7079 52.8455 73.7079C52.7144 73.7079 52.5832 73.5767 52.5832 73.7079V73.5767C52.5832 73.7079 52.1898 73.7079 52.1898 73.839C52.0587 73.7079 52.4521 73.7079 52.4521 73.5767C51.9276 73.5767 52.1898 73.5767 51.6653 73.5767C51.403 73.7079 51.6653 73.7079 51.5341 73.839C51.2719 73.839 51.0096 73.9701 50.7473 73.839L50.8784 73.9701C50.3539 74.1013 50.0916 74.1013 49.8293 73.9701C46.4197 75.2815 49.1736 75.6749 49.1736 75.6749C50.6162 76.0683 51.2718 75.5438 52.8455 75.4126Z" fill="#084242"/>
<path d="M93.5001 74.494C94.1558 74.6252 94.2869 74.8875 94.8115 74.7563C95.0738 74.7563 95.4672 74.7563 95.7295 74.6252C95.8606 74.3629 96.1229 74.6252 96.254 74.494V74.6252C96.254 74.494 96.3852 74.494 96.3852 74.6252C96.5163 74.494 96.5163 74.6252 96.6475 74.494H96.7786C96.9097 74.3629 97.0409 74.3629 97.172 74.494V74.3629C97.4343 74.494 97.5654 74.2318 97.8277 74.3629C98.09 73.9695 98.3523 74.6252 98.6145 74.2318V74.3629C98.7457 74.3629 98.8768 74.2318 98.8768 73.9695C99.008 73.9695 99.008 74.1006 99.008 74.2318C99.008 74.1006 99.1391 74.1006 99.1391 73.9695H99.4014V73.7072C99.5325 73.8383 99.4014 73.9695 99.5325 73.9695V73.7072C99.6637 73.7072 99.7948 74.1006 100.057 74.2318C100.844 74.3629 101.631 73.8383 102.286 74.1006V74.2318C102.286 74.494 102.418 73.8383 102.549 74.1006L102.68 73.9695C102.68 73.9695 102.811 74.1006 102.68 74.1006C102.811 74.1006 102.811 74.1006 102.811 73.9695L102.942 74.1006C103.204 74.2318 103.467 73.9695 103.729 73.9695C104.122 74.2318 104.778 73.9695 105.172 73.8383C105.696 73.4449 106.352 74.494 107.007 73.9695C107.007 73.9695 107.139 73.9695 107.139 73.8383H107.663C107.663 73.8383 110.155 73.9695 108.319 72.0024C108.057 71.8712 107.794 71.8712 107.663 72.1335C107.663 71.8712 107.401 72.1335 107.401 72.0024C107.27 72.2647 107.007 71.7401 106.876 72.0024V71.8712C106.745 71.8712 106.614 72.0024 106.614 71.7401C106.352 71.7401 105.958 71.7401 105.696 72.0024C105.565 72.2647 105.565 72.0024 105.434 72.1335C105.303 72.2647 105.04 72.1335 105.04 72.2647V72.1335H104.778H104.909C104.909 72.5269 104.778 71.8712 104.516 72.1335C104.385 72.1335 104.254 72.7892 103.991 72.6581C103.86 72.7892 104.122 72.3958 103.991 72.5269C103.991 72.3958 103.991 72.3958 103.991 72.2647C103.86 72.3958 103.86 72.1335 103.598 72.2647V72.1335C103.467 72.3958 103.204 72.0024 103.073 72.1335C102.942 72.2647 102.942 71.7401 102.811 72.0024L102.68 71.8712C102.549 71.8712 102.68 72.1335 102.549 72.0024C102.549 71.8712 102.418 71.8712 102.549 71.7401C102.286 71.609 102.155 72.0024 101.893 71.7401C101.893 72.0024 101.631 71.8712 101.631 72.0024C101.631 71.8712 101.368 72.0024 101.5 71.7401V71.609C101.368 71.3467 101.237 71.7401 101.106 71.7401C101.106 71.7401 101.237 71.7401 101.237 71.8712H101.106V71.7401L100.844 71.609V71.7401C100.713 71.609 100.713 71.4778 100.582 71.609C100.582 71.7401 100.713 71.7401 100.582 71.8712C100.45 71.7401 100.188 71.609 100.057 71.609C100.057 71.7401 100.057 71.7401 99.9259 71.7401V71.609C99.7948 71.7401 99.7948 71.3467 99.6637 71.4778V71.3467V71.609C99.5325 71.8712 99.5325 71.3467 99.4014 71.7401C99.5325 71.7401 99.4014 72.0024 99.4014 72.0024V71.8712C99.4014 71.8712 99.2702 72.0024 99.2702 71.8712C99.2702 71.7401 99.2702 71.7401 99.2702 71.7401V71.609L99.1391 71.8712C99.008 71.7401 98.8768 71.8712 98.7457 71.7401C98.7457 71.7401 98.4834 71.609 98.4834 71.8712C98.4834 71.7401 98.3523 71.7401 98.4834 71.609C98.4834 71.7401 98.2211 71.8712 98.2211 71.7401C97.9589 71.609 97.6966 72.0024 97.5654 71.7401C97.5654 71.8712 97.4343 71.8712 97.4343 72.0024C97.172 72.2647 96.9097 71.609 96.9097 72.2647C96.7786 72.2647 96.7786 72.1335 96.7786 72.1335C96.5163 72.1335 96.5163 72.1335 96.3852 72.1335C96.254 72.1335 96.254 72.5269 96.1229 72.3958C96.1229 72.2647 96.1229 72.2647 96.1229 72.2647C96.1229 72.2647 96.1229 72.2647 96.1229 72.1335C96.1229 72.1335 96.1229 72.1335 96.1229 72.2647C95.9918 72.2647 95.9918 72.3958 96.1229 72.3958C96.1229 72.3958 96.1229 72.3958 96.1229 72.5269C95.9918 72.3958 95.8606 72.5269 95.8606 72.3958C95.5983 72.3958 95.3361 72.6581 95.2049 72.6581C95.2049 72.5269 95.2049 72.5269 95.3361 72.3958H95.2049C95.2049 72.2647 95.3361 72.2647 95.3361 72.2647C95.2049 72.0024 94.9426 72.5269 94.6804 72.2647V72.3958C94.6804 72.3958 94.6804 72.5269 94.5492 72.5269C94.5492 72.3958 94.5492 72.2647 94.4181 72.2647C94.287 72.1335 94.1558 72.2647 94.0247 72.3958V72.5269L93.8935 72.3958V72.2647C93.8935 72.3958 93.7624 72.3958 93.7624 72.5269C93.7624 72.3958 93.8935 72.3958 93.8935 72.2647C93.6313 72.2647 93.7624 72.2647 93.5001 72.2647C93.369 72.3958 93.5001 72.3958 93.5001 72.5269C93.369 72.5269 93.2378 72.6581 93.2378 72.5269V72.6581C93.1067 72.7892 92.9756 72.7892 92.8444 72.6581C91.4019 73.9695 92.5821 74.3629 92.5821 74.3629C92.451 75.0186 92.8444 74.494 93.5001 74.494Z" fill="#084242"/>
<path d="M76.1837 79.6091C77.364 79.7402 77.6263 80.1336 78.9376 80.0025C79.5933 80.0025 80.1179 80.0025 80.7736 80.0025C81.0359 79.7402 81.5604 80.0025 81.8227 79.8714L81.9538 80.0025C82.085 80.0025 82.2161 79.8714 82.3473 80.0025C82.4784 79.8714 82.7407 80.0025 82.7407 79.8714H83.0029C83.2652 79.7402 83.6586 79.7402 83.9209 79.8714V79.7402C84.4455 80.0025 84.7078 79.6091 85.2323 79.8714C85.888 79.4779 86.2814 80.1336 86.9371 79.8714C86.806 79.8714 86.9371 80.0025 86.9371 80.0025C87.1994 80.0025 87.5928 80.0025 87.5928 79.6091C87.8551 79.6091 87.7239 79.7402 87.8551 79.8714C87.8551 79.7402 88.1174 79.7402 88.2485 79.6091H88.1174H88.6419L88.5108 79.3468C88.7731 79.4779 88.5108 79.6091 88.773 79.6091V79.3468C89.1665 79.3468 89.2976 79.7402 89.691 79.8714C91.1335 80.0025 92.7072 79.4779 94.1497 79.8714V80.0025C94.1497 80.2648 94.5431 79.6091 94.5431 79.8714L94.6743 79.7402C94.6743 79.7402 94.8054 79.8714 94.6743 79.8714C94.8054 79.8714 94.8054 79.8714 94.9366 79.7402L95.0677 79.8714C95.5923 80.0025 96.1168 79.7402 96.7725 79.7402C97.5593 80.0025 98.8707 79.7402 99.6576 79.4779C100.707 79.0845 102.149 80.0025 103.198 79.4779C103.198 79.4779 103.329 79.4779 103.329 79.3468H104.379C104.379 79.3468 109.493 79.2157 105.559 77.3797C105.034 77.2486 104.641 77.2486 104.247 77.5109C104.116 77.2486 103.723 77.5109 103.592 77.3797C103.198 77.642 102.805 77.2486 102.543 77.3797C102.543 77.3797 102.543 77.2486 102.674 77.2486C102.411 77.2486 102.149 77.3797 102.018 77.2486C101.493 77.3797 100.576 77.2486 100.313 77.5109C100.051 77.7732 100.051 77.5109 99.7887 77.642C99.5264 77.9043 99.133 77.642 98.8707 77.7732V77.642H98.3462H98.4773C98.4773 78.0354 98.0839 77.3797 97.8216 77.642C97.5593 77.642 97.1659 78.2977 96.9037 78.1666C96.7725 78.2977 97.0348 77.9043 96.7725 78.0354C96.7725 77.9043 96.9036 77.9043 96.7725 77.7732C96.5102 77.9043 96.3791 77.642 96.1168 77.7732V77.642C95.7234 77.9043 95.4611 77.5109 95.1988 77.7732C94.8054 77.9043 94.9366 77.3797 94.5431 77.642L94.412 77.5109C94.2809 77.5109 94.2809 77.7732 94.1497 77.642C94.1497 77.5109 93.8875 77.5109 94.0186 77.3797C93.6252 77.2486 93.1006 77.642 92.5761 77.3797C92.4449 77.642 92.1827 77.5109 92.0515 77.642C92.0515 77.5109 91.527 77.642 91.7892 77.3797H91.9204V77.2486C91.6581 76.9863 91.3958 77.3797 91.0024 77.3797C91.1335 77.3797 91.2647 77.3797 91.1335 77.5109H90.8713V77.3797L90.4779 77.2486V77.3797C90.2156 77.2486 90.2156 77.1175 89.9533 77.2486C89.8222 77.3797 90.2156 77.3797 89.9533 77.5109C89.691 77.3797 89.2976 77.2486 88.9042 77.2486C88.9042 77.3797 88.773 77.3797 88.773 77.3797V77.2486C88.3796 77.3797 88.6419 76.9863 88.2485 77.1175V76.9863L88.1174 77.2486C87.7239 77.5109 87.9862 76.9863 87.5928 77.3797C87.7239 77.3797 87.5928 77.642 87.4617 77.642V77.5109C87.3305 77.5109 87.3305 77.642 87.1994 77.5109C87.1994 77.3797 87.1994 77.3797 87.0683 77.3797L87.1994 77.2486L86.9371 77.5109C86.6748 77.3797 86.4125 77.5109 86.2814 77.3797C86.2814 77.3797 85.7569 77.2486 85.6257 77.5109C85.7569 77.3797 85.4946 77.3797 85.4946 77.2486C85.3634 77.3797 84.97 77.5109 84.8389 77.3797C84.3143 77.2486 83.9209 77.5109 83.3964 77.3797C83.3964 77.5109 83.1341 77.3797 83.2652 77.642C82.7407 77.7732 82.3473 77.2486 82.2161 77.7732C81.9538 77.7732 81.9538 77.642 81.8227 77.642C81.4293 77.642 81.2981 77.642 80.9047 77.642C80.7736 77.642 80.6424 78.0354 80.3802 77.9043C80.5113 77.7732 80.3802 77.7732 80.249 77.7732C80.3802 77.7732 80.3802 77.7732 80.249 77.642C80.249 77.642 80.249 77.642 80.1179 77.7732C79.9868 77.7732 79.9868 77.9043 79.9868 77.9043C79.9868 77.9043 79.9868 77.9043 79.9868 78.0354C79.8556 77.9043 79.4622 78.0354 79.4622 77.7732C78.9376 77.7732 78.5442 78.0354 78.0197 78.0354C78.0197 77.9043 78.0197 77.9043 78.1508 77.7732H77.8885C77.8885 77.642 78.0197 77.642 78.1508 77.642C77.7574 77.3797 77.364 77.7732 76.9706 77.642L77.4951 77.7732L77.364 77.9043C77.364 77.7732 77.364 77.642 77.2329 77.642C77.1017 77.5109 76.7083 77.642 76.446 77.7732C76.5771 77.7732 76.5771 77.9043 76.446 77.9043C76.3149 77.9043 76.3149 77.7732 76.1837 77.7732V77.642C76.1837 77.7732 75.9215 77.7732 75.7903 77.9043C75.7903 77.7732 75.9215 77.7732 76.0526 77.7732C75.6592 77.7732 75.7903 77.7732 75.3969 77.7732C75.1346 77.9043 75.3969 77.9043 75.2658 78.0354C75.0035 78.0354 74.8724 78.1666 74.6101 78.0354V78.1666C74.2167 78.2977 73.9544 78.1666 73.6921 78.0354C70.6759 79.0845 72.9053 79.7402 72.9053 79.7402C74.2167 80.1336 74.7412 79.7402 76.1837 79.6091Z" fill="#084242"/>
<path d="M51.6633 79.0835C51.7945 79.2146 51.7945 79.0835 51.6633 79.0835V79.0835Z" fill="#084242"/>
<path d="M50.8738 81.0526C51.7918 81.1838 51.9229 81.4461 52.7098 81.3149C53.1032 81.3149 53.3655 81.1838 53.7589 81.1838C53.89 80.9215 54.1523 81.1838 54.4146 80.9215L54.5457 81.0526C54.5457 80.9215 54.6768 80.9215 54.808 81.0526C54.9391 80.9215 55.0703 81.0526 55.0703 80.9215H55.2014C55.3325 80.7904 55.5948 80.7904 55.726 80.7904V80.6592C56.1194 80.7904 56.1194 80.5281 56.5128 80.6592C56.9062 80.2658 57.1685 80.9215 57.5619 80.5281V80.6592C57.693 80.6592 57.9553 80.5281 57.9553 80.2658C58.0864 80.2658 58.0864 80.3969 58.0864 80.5281C58.0864 80.3969 58.2176 80.2658 58.3487 80.2658H58.611L58.4799 80.0035C58.611 80.1347 58.4799 80.2658 58.7421 80.2658V80.0035C59.0044 80.0035 59.1356 80.3969 59.2667 80.5281C60.1847 80.5281 61.1026 80.0035 61.8895 80.3969V80.5281C61.8895 80.7904 62.1518 80.1347 62.1518 80.3969L62.2829 80.2658C62.2829 80.2658 62.414 80.3969 62.2829 80.3969C62.414 80.3969 62.414 80.3969 62.414 80.2658L62.5452 80.3969C62.9386 80.5281 63.2009 80.2658 63.5943 80.2658C63.9877 80.5281 64.9057 80.2658 65.2991 80.0035C65.9548 79.6101 66.7416 80.5281 67.3973 80.1347C67.3973 80.1347 67.5284 80.1347 67.5284 80.0035H68.1841C68.1841 80.0035 71.2003 80.0035 68.8398 78.1676C68.4464 78.0364 68.3153 78.0364 68.053 78.2987C68.053 78.0364 67.7907 78.2987 67.6596 78.1676C67.5284 78.4298 67.2662 78.0364 67.0039 78.1676V78.0364C66.8727 78.0364 66.6105 78.1676 66.6105 78.0364C66.217 78.0364 65.8236 78.0364 65.5614 78.2987C65.4302 78.561 65.4302 78.2987 65.2991 78.4298C65.1679 78.6921 64.9057 78.4298 64.7745 78.561V78.4298H64.5122H64.6434C64.6434 78.8233 64.3811 78.1676 64.25 78.4298C64.1188 78.4298 63.8566 79.0855 63.7254 78.9544C63.5943 79.0855 63.8566 78.6921 63.7254 78.8233C63.7254 78.6921 63.7254 78.6921 63.7254 78.561C63.5943 78.6921 63.4631 78.4298 63.332 78.561V78.4298C63.0697 78.6921 62.9386 78.2987 62.8074 78.561C62.5452 78.6921 62.6763 78.1676 62.414 78.4298L62.2829 78.2987C62.1518 78.2987 62.2829 78.561 62.1518 78.4298C62.1518 78.2987 62.0206 78.2987 62.0206 78.1676C61.7583 78.0364 61.4961 78.4298 61.2338 78.1676C61.2338 78.4298 60.9715 78.2987 60.9715 78.4298C60.9715 78.2987 60.5781 78.4298 60.8404 78.1676V78.0364C60.5781 77.7741 60.4469 78.1676 60.3158 78.1676C60.3158 78.1676 60.4469 78.1676 60.4469 78.2987H60.3158V78.1676H60.0535V78.2987C59.9224 78.1676 59.9224 78.0364 59.7913 78.1676C59.7913 78.2987 59.9224 78.2987 59.7913 78.4298C59.6601 78.2987 59.3978 78.1676 59.1356 78.1676C59.1356 78.2987 59.1356 78.2987 59.0044 78.2987V78.1676C58.7421 78.4298 58.8733 77.9053 58.7421 78.0364V77.9053V78.1676C58.611 78.4298 58.611 77.9053 58.3487 78.2987C58.4799 78.2987 58.3487 78.561 58.3487 78.561V78.4298C58.3487 78.4298 58.2176 78.561 58.2176 78.4298C58.2176 78.2987 58.2176 78.2987 58.0864 78.2987V78.1676L57.9553 78.4298C57.8242 78.2987 57.5619 78.4298 57.5619 78.2987C57.5619 78.2987 57.2996 78.1676 57.1685 78.4298C57.1685 78.2987 57.0373 78.2987 57.1685 78.1676C57.0373 78.2987 56.9062 78.4298 56.7751 78.2987C56.5128 78.1676 56.2505 78.561 55.9882 78.2987C55.9882 78.4298 55.8571 78.4298 55.8571 78.561C55.5948 78.8233 55.3325 78.1676 55.2014 78.8233C54.5457 79.0855 54.5457 78.9544 54.5457 78.8233C54.2834 78.8233 54.2834 78.9544 54.0211 78.8233C53.89 78.8233 53.89 79.2167 53.7589 79.0855C53.7589 78.9544 53.7589 78.9544 53.6277 78.9544C53.6277 78.9544 53.6277 78.9544 53.6277 78.8233C53.6277 78.8233 53.6277 78.8233 53.6277 78.9544C53.4966 78.9544 53.4966 79.0855 53.6277 79.0855C53.6277 79.0855 53.6277 79.0855 53.6277 79.2167C53.4966 79.0855 53.3655 79.2167 53.3655 79.0855C53.1032 79.0855 52.8409 79.3478 52.5786 79.479C52.5786 79.3478 52.5786 79.3478 52.7098 79.2167H52.5786C52.5786 79.0855 52.7098 79.0855 52.7098 79.0855C52.4475 78.8233 52.1852 79.3478 52.0541 79.0855V79.2167C52.0541 79.2167 52.0541 79.3478 51.9229 79.3478C51.9229 79.2167 51.9229 79.0855 51.7918 79.0855C51.6607 78.9544 51.5295 79.0855 51.3984 79.2167V79.3478C51.3984 79.3478 51.3984 79.2167 51.2672 79.2167V79.0855C51.2672 79.2167 51.1361 79.2167 51.1361 79.3478C51.1361 79.2167 51.2672 79.2167 51.2672 79.2167C51.1361 79.2167 51.1361 79.2167 51.005 79.2167C50.8738 79.3478 51.005 79.3478 50.8738 79.479C50.7427 79.479 50.6115 79.479 50.6115 79.3478V79.479C50.3493 79.479 50.2181 79.3478 50.3493 79.2167C49.8247 79.2167 49.5624 79.0855 49.3002 79.0855C49.0379 79.0855 48.9067 79.2167 48.7756 79.3478C48.6445 79.479 48.6445 79.6101 48.7756 79.8724C48.7756 80.0035 48.9067 80.1347 48.9067 80.1347C48.7756 80.9215 49.8247 81.0526 50.8738 81.0526Z" fill="#084242"/>
<path d="M55.7284 117.771C56.9086 117.771 57.1709 118.164 58.3511 117.902C58.8757 117.902 59.5314 117.771 60.0559 117.771C60.3182 117.508 60.8428 117.771 61.105 117.508L61.2362 117.64C61.3673 117.508 61.4985 117.508 61.6296 117.64C61.7607 117.508 62.023 117.64 62.023 117.508H62.1542C62.4164 117.377 62.6787 117.377 62.941 117.377V117.246C63.4655 117.377 63.7278 117.115 64.2524 117.246C64.9081 116.853 65.3015 117.508 65.826 117.115C65.6949 117.115 65.826 117.246 65.826 117.246C66.0883 117.246 66.4817 117.115 66.4817 116.853C66.744 116.853 66.6129 116.984 66.744 117.115C66.744 116.984 66.8752 116.853 67.1374 116.853H67.0063H67.5308L67.3997 116.59C67.662 116.722 67.5308 116.853 67.662 116.853V116.59C68.0554 116.59 68.1865 116.984 68.58 117.115C70.0225 117.115 71.5961 116.59 72.9075 116.984V117.115C72.9075 117.377 73.301 116.722 73.301 116.984L73.4321 116.853C73.4321 116.853 73.5632 116.984 73.4321 116.984C73.5632 116.984 73.5632 116.984 73.6944 116.853L73.8255 116.984C74.3501 117.115 74.8746 116.853 75.3992 116.853C76.0549 117.115 77.4974 116.853 78.2842 116.59C79.3333 116.197 80.6447 117.115 81.6938 116.722C81.6938 116.722 81.825 116.722 81.825 116.59H82.8741C82.8741 116.59 83.1364 116.59 83.5298 116.59C83.7921 116.59 83.9232 116.59 84.1855 116.459C84.3166 116.459 84.4478 116.459 84.5789 116.459C84.71 116.459 84.9723 116.459 85.2346 116.328C85.3657 116.197 85.4969 116.197 85.628 115.935C85.7591 115.672 85.8903 115.541 85.7591 115.148C85.4969 114.623 85.2346 114.754 85.1034 114.623C84.9723 114.623 84.8412 114.623 84.71 114.754C84.5789 114.754 84.3166 114.886 84.3166 115.279C84.3166 115.672 84.4478 115.672 84.5789 115.672C84.71 115.672 84.71 115.672 84.71 115.541V115.41C84.71 115.279 84.8412 115.148 84.8412 115.279C84.8412 115.279 84.9723 115.279 84.9723 115.41C84.9723 115.41 84.9723 115.541 84.9723 115.41C84.9723 115.41 84.9723 115.41 84.8412 115.41C84.8412 115.41 84.8412 115.41 84.71 115.279C84.71 115.279 84.71 115.148 84.5789 115.148C84.4478 115.017 84.1855 114.886 84.0543 114.754C83.5298 114.623 83.1364 114.623 82.7429 114.886C82.6118 114.623 82.2184 114.886 82.0873 114.754C81.6938 115.017 81.4316 114.623 81.0381 114.754C81.0381 114.754 81.0381 114.623 81.1693 114.623C80.907 114.623 80.6447 114.754 80.6447 114.623C80.1202 114.623 79.3333 114.623 78.9399 114.886C78.6776 115.148 78.6776 114.886 78.4154 115.017C78.1531 115.279 77.7597 115.017 77.6285 115.148V115.017H77.2351H77.3663C77.3663 115.41 76.9728 114.754 76.7106 115.017C76.4483 115.017 76.0549 115.672 75.7926 115.541C75.6614 115.672 75.9237 115.279 75.6614 115.41C75.6614 115.279 75.7926 115.279 75.6614 115.148C75.3992 115.279 75.268 115.017 75.0058 115.148V115.017C74.6123 115.279 74.3501 114.886 74.0878 115.148C73.6944 115.279 73.8255 114.754 73.4321 115.017L73.301 114.886C73.1698 114.886 73.1698 115.148 73.0387 115.017C73.0387 114.886 72.7764 114.886 72.9075 114.754C72.5141 114.623 72.1207 115.017 71.465 114.754C71.3339 115.017 71.0716 114.886 70.9405 115.017C70.9405 114.886 70.4159 115.017 70.6782 114.754H70.8093V114.623C70.547 114.361 70.2848 114.754 69.8913 114.754C70.0225 114.754 70.1536 114.754 70.0225 114.886H69.7602V114.754H69.3668V114.886C69.1045 114.754 69.1045 114.623 68.8422 114.754C68.7111 114.886 69.1045 114.886 68.8422 115.017C68.58 114.886 68.1865 114.754 67.7931 114.754C67.7931 114.886 67.7931 114.886 67.662 114.886V114.754C67.2686 115.017 67.5308 114.492 67.1374 114.623V114.492L67.0063 114.754C66.6129 115.017 66.8752 114.492 66.4817 114.886C66.6129 114.886 66.6129 115.148 66.3506 115.148V115.017C66.2195 115.017 66.2195 115.148 66.0883 115.017C66.0883 114.886 66.0883 114.886 65.9572 114.886L66.0883 114.754L65.826 115.017C65.5638 114.886 65.3015 115.017 65.1703 114.886C65.1703 114.886 64.6458 114.754 64.6458 115.017C64.7769 114.886 64.5147 114.886 64.5147 114.754C64.3835 114.886 63.9901 115.017 63.859 114.886C63.3344 114.754 62.941 115.148 62.4164 114.886C62.4164 115.017 62.1542 115.017 62.2853 115.148C61.7607 115.41 61.3673 114.754 61.2362 115.41C60.9739 115.41 60.9739 115.279 60.8428 115.279C60.4494 115.279 60.3182 115.41 60.0559 115.279C59.9248 115.279 59.9248 115.672 59.6625 115.541C59.7937 115.41 59.6625 115.41 59.5314 115.41C59.6625 115.41 59.6625 115.41 59.5314 115.279C59.5314 115.279 59.5314 115.279 59.4002 115.41C59.2691 115.41 59.2691 115.541 59.4002 115.541C59.4002 115.541 59.4002 115.541 59.4002 115.672C59.2691 115.541 58.8757 115.672 58.8757 115.541C58.3511 115.541 57.9577 115.804 57.5643 115.935C57.5643 115.804 57.5643 115.804 57.6954 115.672H57.4332C57.4332 115.541 57.5643 115.541 57.6954 115.541C57.302 115.279 56.9086 115.804 56.5152 115.541L56.3841 115.672L56.2529 115.804C56.2529 115.672 56.2529 115.541 55.9906 115.541C55.8595 115.41 55.4661 115.672 55.3349 115.672C55.4661 115.672 55.4661 115.804 55.3349 115.804C55.2038 115.804 55.2038 115.672 55.0727 115.804V115.672C55.0727 115.804 54.8104 115.804 54.8104 115.935C54.8104 115.804 54.9415 115.804 54.9415 115.672C54.5481 115.672 54.6792 115.672 54.2858 115.672C54.0236 115.804 54.2858 115.804 54.2858 115.935C54.0236 115.935 53.8924 116.066 53.6301 115.935L53.7613 116.066C53.3679 116.197 53.1056 116.197 52.8433 116.066C50.0894 117.377 52.3187 117.771 52.3187 117.771C53.8924 118.426 54.417 117.902 55.7284 117.771Z" fill="#084242"/>
<path d="M115.003 17.9747C113.823 17.8436 112.511 18.1059 111.462 18.8927C110.807 19.4172 110.282 20.0729 109.758 20.7286C108.184 22.8269 107.135 25.3185 106.61 27.9413C106.217 29.9084 106.086 32.0066 106.086 33.9737C106.086 35.2851 106.086 36.4653 106.61 37.6456C106.873 38.5635 107.397 39.2192 107.922 40.0061C108.971 41.5797 110.151 43.2845 111.725 44.3336C113.298 45.3828 115.003 45.7762 116.839 46.1696C118.544 46.563 120.38 46.9564 122.085 46.9564C124.839 46.9564 127.592 46.0385 130.084 44.7271C130.871 44.3336 131.658 43.8091 132.313 43.1534C132.969 42.4977 133.363 41.5797 133.887 40.6618C134.543 39.2192 135.199 37.7767 135.723 36.203C136.772 32.4 136.248 28.2036 134.805 24.5317C134.281 22.958 133.494 21.3843 132.445 19.9418C129.822 16.6633 125.232 15.2208 121.036 15.7454C116.839 16.2699 112.905 18.237 109.626 20.8598" fill="#FFE1DC"/>
<path d="M109.757 27.2866L109.625 27.5489C109.625 27.4178 109.757 27.4178 109.757 27.2866Z" fill="#084242"/>
<path d="M108.708 23.614C108.052 25.3188 107.659 26.499 107.396 27.5482C107.134 28.7284 107.003 29.9087 107.134 31.8757C107.265 33.7117 107.79 35.6788 108.708 37.3836C109.232 38.0393 109.888 39.4818 110.806 40.1375L110.937 40.5309C111.2 40.7932 111.593 41.0555 111.724 41.3177C112.249 41.58 112.642 41.9734 112.904 42.1046L113.429 42.498H113.298C114.216 43.0225 114.871 43.416 115.658 43.8094V43.6782C117.232 44.5962 117.888 44.4651 119.33 45.1208C121.297 45.1208 122.346 46.0387 124.445 45.6453C124.182 45.6453 124.576 45.7765 124.576 45.7765C125.494 45.7765 126.543 45.6453 126.543 45.2519C127.198 45.1208 127.067 45.2519 127.198 45.383C127.198 45.2519 127.723 45.1208 128.248 44.9896L127.985 45.1208C128.51 44.9896 129.034 44.8585 129.428 44.7274L129.034 44.5962C129.821 44.4651 129.297 44.8585 130.084 44.5962L129.952 44.3339C131.001 44.0717 131.788 44.0717 132.837 43.6782C134.936 42.6291 136.772 40.7932 137.821 38.695C138.87 36.5967 139.263 34.3674 139.657 32.2692L139.788 32.138C140.05 32.0069 139.525 30.9578 139.657 30.8266L139.525 30.3021C139.525 30.1709 139.657 29.9087 139.657 30.1709C139.657 29.7775 139.657 29.7775 139.525 29.3841L139.657 28.8595C139.657 27.0236 139.263 25.5811 138.87 23.8763C138.739 21.6469 137.034 17.7127 135.329 15.7456C134.149 14.4343 132.706 12.9917 130.87 12.336C129.034 11.5492 127.067 11.2869 125.231 11.8115C125.1 11.8115 124.838 11.9426 124.838 11.9426C123.789 12.0738 122.74 12.336 121.691 12.7295C121.691 12.7295 120.773 12.9917 119.592 13.6474C118.412 14.172 117.101 14.9588 116.183 15.7456C115.265 16.4013 114.609 17.057 115.003 17.1882C115.265 17.3193 116.445 16.9259 119.199 16.0079V16.1391C120.642 15.4834 121.559 15.09 122.609 14.4343C122.871 14.6965 123.92 14.0408 124.313 14.0408C125.231 13.5163 126.28 13.9097 127.198 13.6474C127.198 13.6474 127.198 13.7786 126.936 13.7786C127.592 13.6474 128.51 13.7786 128.51 13.9097C129.297 13.9097 130.215 14.172 131.001 14.5654C131.788 14.8277 132.444 15.2211 132.837 15.4834H132.706C133.231 15.7456 133.231 15.8768 133.755 16.4013V16.5325C134.28 16.9259 134.804 17.975 135.067 18.4996L134.936 18.6307C135.198 19.0241 135.329 19.4175 135.46 19.811L135.329 19.4175C135.722 19.4175 135.591 20.4667 136.116 21.2535C136.378 22.0403 137.427 22.696 137.427 23.7451C137.69 24.1385 137.034 23.4828 137.427 24.0074C137.296 24.0074 137.296 23.7451 137.165 23.8763C137.427 24.532 137.296 24.9254 137.558 25.7122H137.427C137.821 26.7613 137.558 27.6793 137.821 28.335C137.952 29.3841 137.427 29.1218 137.821 30.1709L137.69 30.5644C137.69 31.0889 137.952 30.9578 137.821 31.4823C137.69 31.4823 137.69 32.138 137.558 31.8757C137.296 33.056 137.558 34.3674 136.903 35.6788C137.034 36.0722 136.64 36.7279 136.772 36.9902C136.64 36.9902 136.116 38.3015 136.247 37.5147C136.247 37.3836 136.378 37.3836 136.378 37.3836L136.247 37.2524C135.722 37.9081 135.722 38.695 135.198 39.3507C135.329 39.2195 135.591 38.9572 135.46 39.0884C135.329 39.3507 135.198 39.4818 134.936 39.7441V39.6129C134.673 39.8752 134.411 40.1375 134.149 40.3998H134.411C134.018 40.7932 133.624 40.662 133.231 41.1866C133.1 41.4489 133.755 41.0555 133.362 41.4489C132.706 41.8423 131.657 42.2357 130.739 42.6291C130.87 42.7603 130.608 42.8914 130.346 43.0225L130.215 42.8914C129.297 43.416 129.821 42.7603 128.772 43.1537V43.0225L128.641 43.416C127.723 43.9405 128.116 43.2848 127.067 43.8094C127.461 43.6782 127.33 44.0717 126.805 44.0717L126.936 43.9405C126.674 44.0717 126.543 44.0717 126.412 44.0717C126.543 43.9405 126.543 43.8094 126.018 43.9405L126.28 43.6782C126.018 43.8094 125.756 43.9405 125.494 43.9405C124.838 43.8094 123.92 44.0717 123.658 43.8094C123.658 43.8094 123.264 43.8094 123.002 43.8094C122.609 43.8094 122.215 43.8094 122.084 43.8094C122.346 43.6782 121.691 43.5471 121.822 43.416C121.428 43.5471 120.51 43.416 120.117 43.1537H120.248C118.806 42.6291 117.756 42.6291 116.576 41.9734C116.576 42.1046 115.921 41.7112 116.052 41.9734C114.74 41.4489 114.216 40.2686 113.429 40.5309C112.904 40.1375 113.035 39.8752 112.773 39.6129L112.904 39.7441C112.117 38.9572 111.855 38.695 111.462 37.9081C111.2 37.6458 110.937 37.6459 110.544 36.9902C110.806 37.1213 110.544 36.859 110.413 36.5967C110.544 36.7279 110.544 36.7279 110.544 36.4656L110.413 36.3345C110.15 35.941 110.15 35.941 110.282 36.2033C110.282 36.2033 110.282 36.2033 110.282 36.3345C110.15 35.8099 109.757 35.0231 110.019 34.8919C109.626 33.4494 109.232 32.4003 109.232 31.22C109.364 31.0889 109.364 31.3512 109.495 31.7446C109.495 31.4823 109.495 31.22 109.495 30.8266C109.626 30.8266 109.626 31.3512 109.626 31.6135C109.888 30.5643 109.364 29.3841 109.888 28.2038L109.757 27.9416V27.8104C109.757 27.8104 109.626 27.5482 109.626 27.2859C109.757 27.1547 109.888 27.417 110.019 26.7613C110.282 26.3679 110.282 25.4499 110.544 24.7942C110.413 25.0565 110.413 24.9254 110.413 24.7942C110.544 24.532 110.675 24.4008 110.675 24.1385H110.806C110.544 24.1385 110.937 23.3517 110.937 23.2206C111.068 23.0894 110.806 23.7451 110.937 23.8763C111.462 22.696 111.2 23.3517 111.724 22.1715C111.855 21.5158 111.462 22.1715 111.593 21.9092C111.855 21.3846 111.986 20.7289 112.38 20.2044L112.117 20.3355C112.511 19.2864 113.035 18.7618 113.56 18.2373C114.609 16.4013 115.658 15.7456 116.183 15.3522C116.707 14.9588 116.576 14.8277 116.314 14.8277C115.921 14.8277 115.265 14.9588 114.74 15.2211C114.216 15.4834 113.822 15.7456 113.822 15.7456C112.117 16.9259 111.462 18.1061 110.806 19.4175C110.019 20.3355 109.364 21.6469 108.708 23.614Z" fill="#084242"/>
<path d="M118.02 24.0065C118.151 23.8754 118.151 23.8754 118.02 24.0065V24.0065Z" fill="#084242"/>
<path d="M119.199 26.2361C119.462 25.4492 119.855 25.0558 120.117 24.5313C120.511 24.0067 120.773 23.7444 121.298 22.9576C121.822 22.3019 122.478 21.7774 123.133 21.2528C123.396 20.8594 124.051 20.7283 124.314 20.3348H124.576C124.707 20.2037 124.838 20.0726 124.969 20.0726C125.101 19.9414 125.363 19.9414 125.494 19.8103L125.756 19.6791C126.15 19.548 126.543 19.4169 126.805 19.548V19.4169C127.461 19.6791 127.854 19.4169 128.248 19.8103C128.641 19.8103 128.772 20.0726 128.904 20.3348C129.035 20.5971 129.035 20.8594 129.297 21.2528C129.166 21.1217 129.166 21.2528 129.166 21.2528C129.297 21.6462 129.297 22.0396 129.69 22.0396C129.69 22.3019 129.559 22.3019 129.428 22.3019C129.559 22.3019 129.559 22.5642 129.559 22.8265V22.6953C129.559 22.9576 129.559 23.2199 129.559 23.351L129.822 23.2199C129.69 23.6133 129.559 23.2199 129.428 23.6133H129.69C129.559 24.1379 129.166 24.4001 128.772 24.7936C128.379 25.8427 127.986 27.1541 127.854 28.4654V29.1211C127.854 29.3834 127.854 29.6457 127.986 29.7768C128.117 30.1702 128.379 30.5637 128.772 30.8259C129.166 31.0882 129.69 31.2194 129.953 31.3505C130.215 31.4816 130.477 31.4816 130.74 31.6128V31.7439C130.74 32.0062 131.264 31.4816 131.133 31.7439L131.264 31.6128H131.395C131.395 31.6128 131.395 31.6128 131.264 31.6128C131.264 31.6128 131.133 31.6128 131.002 31.4816C131.002 31.4816 131.002 31.6128 130.871 31.6128C130.74 31.7439 130.477 31.8751 129.953 31.7439C128.772 31.4816 126.543 31.7439 125.363 31.875C123.527 32.2685 121.429 31.3505 119.724 31.7439C119.724 31.7439 119.462 31.7439 119.462 31.875H117.757C117.757 31.875 117.232 31.8751 117.101 31.7439C117.101 31.6128 116.839 32.0062 116.839 32.0062C116.839 32.0062 116.839 32.0062 116.97 32.0062C116.839 32.0062 116.839 32.0062 116.839 32.0062C116.839 32.0062 117.101 32.2685 117.101 32.1373L117.232 32.0062C117.626 31.7439 118.019 31.6128 117.888 31.3505C117.888 31.2194 117.626 31.0882 117.232 30.9571C116.97 30.9571 116.708 30.9571 116.445 30.9571C116.314 30.9571 116.052 31.0882 115.79 31.3505C115.527 31.6128 115.396 32.0062 115.396 32.3996V32.2685C115.396 32.793 115.659 33.1864 116.052 33.4487C116.314 33.711 116.576 33.8421 116.839 33.8421C117.363 33.9733 117.757 33.9733 118.019 33.711C118.15 33.9733 118.806 33.711 118.937 33.8421C119.462 33.5799 120.117 33.9733 120.642 33.8421C120.642 33.8421 120.642 33.9733 120.511 33.9733C120.904 33.9733 121.429 33.8421 121.429 33.9733C122.347 33.9733 123.658 33.9733 124.314 33.711C124.707 33.4487 124.707 33.711 125.101 33.5799C125.494 33.3176 126.15 33.5799 126.543 33.4487V33.5799H127.33H127.068C127.199 33.1864 127.592 33.8421 128.117 33.5799C128.641 33.5799 129.166 32.9242 129.69 33.0553C129.953 32.9242 129.428 33.3176 129.822 33.1864C129.822 33.3176 129.69 33.3176 129.69 33.4487C130.084 33.3176 130.346 33.5799 130.871 33.4487V33.5799C131.264 33.4487 131.526 33.3176 131.92 33.1864C132.313 33.0553 132.575 32.793 132.707 32.3996C132.969 32.0062 132.969 31.7439 133.1 31.6128C133.231 31.4816 133.362 31.0882 132.838 30.5637C132.838 30.4325 132.707 30.1702 132.707 30.0391C132.313 29.6457 132.313 29.908 131.92 29.6457C131.92 29.5145 131.395 29.3834 131.658 29.3834C131.264 29.1211 130.871 29.1211 130.477 29.1211C130.215 29.1211 130.215 29.1211 130.215 29.1211C130.215 29.1211 130.084 28.99 130.215 28.99C129.953 29.1211 130.084 28.8589 129.953 28.8589C129.953 28.8589 129.953 28.7277 130.084 28.7277C130.084 28.5966 130.084 28.5966 130.215 28.7277H130.346C130.477 28.7277 130.477 28.4654 130.477 28.3343C130.477 28.072 130.346 27.9409 130.477 27.6786C130.346 27.8097 130.346 27.9409 130.346 27.8097L130.477 27.4163L130.608 27.5475L130.871 26.8918H130.74C130.871 26.6295 131.133 26.6295 131.133 26.1049C131.133 25.8427 130.871 26.3672 130.871 25.9738C131.133 25.5804 131.526 24.9247 131.658 24.4001C131.526 24.4001 131.526 24.269 131.526 24.1379H131.658C131.658 23.4822 132.051 24.0067 132.051 23.2199L132.182 23.351L131.92 23.0887C131.789 22.4331 132.313 22.8265 131.92 22.0396C131.92 22.3019 131.658 22.1708 131.658 21.7774L131.789 21.9085C131.789 21.7774 131.658 21.6462 131.789 21.5151C131.92 21.6462 131.92 21.5151 131.92 21.2528L132.051 21.3839C131.92 21.2528 131.92 20.9905 131.789 20.8594C131.92 20.466 131.526 19.8103 131.658 19.548C131.658 19.548 131.395 18.4989 131.002 18.4989C131.264 18.63 130.871 18.1055 131.133 18.1055C130.871 17.9743 130.215 17.4498 130.084 17.1875C129.166 16.4007 128.117 16.5318 127.199 16.2695C127.199 16.4007 126.674 16.2695 126.805 16.5318C125.887 16.7941 124.969 16.4007 124.838 17.0564C124.445 17.1875 124.314 17.0564 124.183 17.0564H124.314C123.658 17.4498 123.396 17.4498 122.871 17.7121C122.609 17.8432 122.74 18.2366 122.347 18.3678C122.478 18.2366 122.215 18.3678 122.084 18.3678C122.215 18.2366 122.215 18.2366 121.953 18.2366C121.953 18.2366 121.953 18.3678 121.822 18.3678C121.56 18.63 121.691 18.63 121.822 18.4989C121.822 18.4989 121.822 18.4989 121.953 18.4989C121.56 18.4989 121.298 19.0234 121.166 18.8923C120.511 19.548 120.248 20.2037 119.724 20.7283C119.593 20.7283 119.593 20.5971 119.724 20.3348L119.462 20.7283C119.33 20.5971 119.593 20.466 119.724 20.3348C119.068 20.7283 119.068 21.5151 118.544 22.0396V22.1708V22.4331C118.412 22.4331 118.281 22.3019 118.15 22.6953C117.888 22.9576 117.888 23.4822 117.888 23.8756C118.019 23.7444 118.019 23.7444 118.019 23.8756C118.019 24.0067 117.757 24.1379 117.888 24.269H117.757C117.888 24.269 117.757 24.7936 117.888 24.9247C117.757 25.0558 117.888 24.6624 117.757 24.5313C117.626 25.3181 117.626 24.9247 117.494 25.5804C117.626 25.9738 117.626 25.5804 117.757 25.7115C117.757 26.1049 117.888 26.3672 117.757 26.7606L117.888 26.6295C118.019 27.2852 118.019 27.6786 117.888 28.072C118.281 29.2523 118.806 29.7768 119.068 30.0391C119.33 30.3014 119.462 30.1702 119.593 30.0391C119.724 29.6457 119.724 28.8589 119.724 28.8589C119.724 28.072 119.724 27.5475 119.724 26.8918C119.068 27.9409 119.068 27.2852 119.199 26.2361Z" fill="#084242"/>
<path d="M122.089 34.7591C121.958 35.0214 121.696 35.1526 121.827 35.4148C121.827 35.546 121.827 35.6771 121.958 35.9394C122.22 35.9394 121.958 36.2017 122.22 36.3328L122.089 36.4639C122.22 36.4639 122.22 36.4639 122.089 36.5951C122.22 36.5951 122.089 36.7262 122.22 36.7262V36.8574C122.351 36.8574 122.351 36.9885 122.351 37.1196L122.482 36.9885C122.351 37.2508 122.745 37.1196 122.614 37.3819C123.007 37.2508 122.614 37.9065 123.007 37.7753C123.007 37.7753 123.007 37.9065 122.876 37.9065C123.007 37.9065 123.138 38.0376 123.269 37.7753C123.269 37.7753 123.269 37.9065 123.138 38.0376C123.269 37.9065 123.269 37.9065 123.4 37.9065H123.532L123.663 37.6442C123.663 37.7753 123.532 37.9065 123.663 37.9065L123.794 37.7753C123.925 37.9065 123.794 38.1688 123.794 38.2999C124.187 38.5622 124.712 37.7753 124.974 38.0376V38.1687C124.974 38.431 125.105 37.6442 125.105 37.9065V37.7753V37.9065V37.7753L125.236 37.9065C125.499 37.9065 125.499 37.3819 125.761 37.1196C126.023 37.1196 126.154 36.7262 126.285 36.3328C126.417 35.9394 126.285 35.546 126.285 35.4148C126.154 35.1526 126.285 34.8903 126.417 34.4969C126.548 34.1034 126.417 33.71 126.285 33.8412C126.285 33.8412 126.285 33.8412 126.154 33.8412C126.154 33.71 126.023 33.71 126.023 33.5789C126.023 33.5789 126.023 33.4478 125.892 33.4478H125.761C125.761 33.4478 125.761 33.4478 125.63 33.4478H125.499C125.368 33.4478 125.236 33.4478 125.105 33.4478C124.712 33.71 124.712 33.9723 124.581 34.1034C124.581 34.2346 124.581 34.4969 124.843 34.7591C125.105 35.0214 125.367 34.8903 125.367 34.8903V34.7591C125.367 34.7591 125.236 34.628 125.236 34.4969C125.236 34.3657 125.367 34.4969 125.367 34.3657V34.7591C125.367 34.7591 125.367 34.7591 125.367 34.8903C125.367 35.0214 125.367 35.1526 125.236 35.2837C125.236 35.4148 125.236 35.4148 125.236 35.2837C125.105 35.546 125.236 35.2837 125.236 35.4148C125.367 35.2837 125.105 35.546 125.236 35.546C125.236 35.546 125.236 35.546 125.236 35.6771C125.236 35.6771 125.236 35.8083 125.367 35.6771C125.499 35.6771 125.367 35.6771 125.367 35.6771C125.367 35.6771 125.367 35.6771 125.367 35.8083C125.499 35.8083 125.236 35.8082 125.367 35.9394L125.499 36.2017C125.499 36.3328 125.499 36.0705 125.499 36.2017C125.499 36.2017 125.499 36.2017 125.499 36.0705C125.499 36.2017 125.499 36.0705 125.499 36.2017C125.499 36.3328 125.499 36.0705 125.499 36.2017V36.0705V36.2017C125.499 36.0705 125.499 36.2017 125.499 36.0705C125.499 35.9394 125.499 36.3328 125.499 36.0705C125.499 36.2017 125.499 36.2017 125.499 36.3328C125.499 36.2017 125.499 36.3328 125.499 36.2017V36.0705C125.499 35.8083 125.499 36.2017 125.499 36.2017C125.499 36.2017 125.499 36.2017 125.499 36.3328V36.2017V36.3328C125.499 36.3328 125.63 36.0705 125.499 36.2017C125.499 36.3328 125.499 36.3328 125.367 36.4639C125.367 36.3328 125.368 36.2017 125.499 36.2017C125.368 36.3328 125.367 36.3328 125.367 36.3328L125.499 36.2017C125.368 36.3328 125.63 35.9394 125.63 36.0705V35.9394L125.499 36.2017C125.368 36.4639 125.63 35.9394 125.367 36.3328C125.367 36.3328 125.105 36.5951 125.236 36.5951L125.367 36.4639C125.367 36.4639 125.236 36.5951 125.367 36.4639L125.499 36.3328L125.63 36.2017L125.499 36.4639C125.63 36.3328 125.499 36.4639 125.63 36.3328C125.63 36.3328 125.63 36.2017 125.499 36.3328C125.63 36.2017 125.63 36.2017 125.761 36.0705C125.63 36.2017 125.499 36.2017 125.63 36.0705C125.761 35.9394 125.367 36.2017 125.63 36.0705C125.499 36.2017 125.499 36.0705 125.367 36.2017C125.105 36.2017 125.761 35.9394 125.105 36.2017L125.236 36.0705C125.236 36.0705 124.843 36.0705 124.974 36.0705C125.105 36.0705 125.105 36.0705 125.105 36.0705C125.105 36.0705 125.105 36.0705 125.236 36.0705C125.236 36.0705 125.236 36.0705 125.105 36.0705H124.974C124.974 36.0705 124.974 36.0705 124.843 36.0705C124.974 36.0705 124.843 35.9394 124.974 35.9394C124.974 35.8082 124.712 35.8083 124.581 35.6771C124.712 35.6771 124.712 35.6771 124.843 35.6771C124.974 35.6771 124.974 35.6771 124.974 35.6771C125.236 35.6771 124.712 35.546 124.974 35.4148H124.843H124.712C124.843 35.4148 124.974 35.4148 124.974 35.4148C125.105 35.4148 124.974 35.2837 124.843 35.2837H124.712H124.843H124.974C124.843 35.2837 124.843 35.1526 124.712 35.1526C124.843 35.1526 124.843 35.1526 124.974 35.1526C124.974 35.0214 124.974 35.1526 124.974 35.0214C124.843 35.0214 124.843 35.0214 124.712 35.0214C124.712 35.0214 124.581 34.8903 124.712 34.8903H124.581C124.45 34.7591 124.45 34.7591 124.712 34.7591L124.581 34.628H124.318C125.499 35.0214 125.892 34.4969 125.892 34.4969L123.007 34.2346C121.696 34.1034 122.089 34.3657 122.089 34.7591Z" fill="#084242"/>
</g>
<defs>
<clipPath id="clip0">
<rect width="165" height="165" fill="white"/>
</clipPath>
</defs>
</svg>
